<?xml version="1.0" encoding="utf-8"?>
<!-- Generator: Adobe Illustrator 27.0.0, SVG Export Plug-In . SVG Version: 6.00 Build 0)  -->
<svg version="1.1" id="Layer_1" xmlns="http://www.w3.org/2000/svg" xmlns:xlink="http://www.w3.org/1999/xlink" x="0px" y="0px"
	 viewBox="0 0 512 512" style="enable-background:new 0 0 512 512;" xml:space="preserve">
<style type="text/css">
	.st0{fill:#79C2F6;}
	.st1{fill:#49008D;}
	.st2{fill:#FE6972;}
	.st3{fill:#D200AB;}
	.st4{fill:#FD6872;}
	.st5{fill:#FD6774;}
	.st6{fill:#48426B;}
	.st7{fill:#4D426A;}
	.st8{fill:#4B4168;}
</style>
<rect class="st0" width="512" height="512"/>
<g>
	<path class="st1" d="M276.9,228.5c11.7-15.6,23.8-31,38.5-44c13.2-11.6,27.3-21.6,44.7-25.7c6-1.4,12.1-1.6,18.2-0.4
		c8.9,1.9,14.8,8.3,15.9,17.4c0.9,7.5-0.5,14.9-2.1,22.1c-4.7,21.9-9.5,43.7-18.7,64.2c-2.8,6.4-6.2,12.5-11,17.6
		c-3.1,3.3-6.5,6.1-11,7.3c-1.8,2.4-3.9,1.3-5.8,0.4c-16.4-8.1-34.1-8.9-51.8-9.4c-3.8-0.1-7.6-0.1-11.4,0c-2.1,0.1-3.9-0.4-5.5-1.9
		c-1.4-1.6-2-3.5-2.1-5.5c-0.5-7.2-3.1-13.8-4.8-20.7c-1-3.9-1-7.5,1.8-10.7c1.6-1.8,1.9-4.2,2.4-6.4
		C274.7,231.1,274.9,229.3,276.9,228.5z"/>
	<path class="st1" d="M150.3,289.4c-3.7-1.8-7.3-3.7-9.6-7.4c-7.1-10-12.7-20.8-17-32.2c-3.6-9.6-6.5-19.4-8.3-29.5
		c-1.3-7.2-2.8-14.3-4.9-21.2c-2.3-7.8-2.9-15.4-1.6-23.4c2-8.3,8-11.8,15.7-13.1c12.4-2.1,24,0.5,35.2,5.8
		c17.1,8.3,31.1,20.6,44,34.2c8,8.4,15,17.6,22.4,26.6c0.2,0,0.5,0,0.5,0.1c2.1,8,10.7,14.3,6.3,24.2c-2,4.5-2.9,9.4-3.4,14.4
		c-0.2,2.7-0.3,5.7-2.4,7.9c-2.2,2.2-5,2.2-7.9,2.2c-15.7,0.2-31.3,1.2-46.5,5.2c-5.6,1.5-10.8,3.9-16.2,6
		C154.5,290.2,152.4,291.6,150.3,289.4z"/>
	<path class="st2" d="M226.4,275c0.9-9.2,2.4-18.3,6.2-26.8c0.5-1,1.3-2.3,0.1-3.1c-5.7-3.8-5.5-10.1-6.5-15.8
		c3-6.4,5.5-13.2,11.9-17.3c1.3-0.8,1.1-2.2,0.8-3.6c-3.7-15.3-10.4-28.9-21.3-40.4c-2.6-2.7-5.4-4.5-9.3-5.1
		c-8.2-1.2-13-7.6-12.6-15.8c0.3-5.6,4.8-8.6,10.1-6.7c5.9,2.2,9.6,6.5,10.7,12.7c0.9,5,3.2,8.7,6.7,12.3
		c10.4,10.8,17.2,23.8,20.9,38.4c1,4,2.7,5.8,6.9,4.6c0.9-0.3,2-0.3,3-0.1c3.7,0.8,4.9-1,5.5-4.3c2.9-14.9,9.2-28.3,19.6-39.5
		c3.3-3.5,5.8-6.9,6.9-12c1.4-6.4,6.4-10.7,13.2-12c3.7-0.7,7.2-0.2,9.3,3.1c2.2,3.5,1.5,7.1-1.1,10.2c-4,4.9-9.2,8.2-15.5,9
		c-2.5,0.3-4.3,1.3-6,3.1c-11.4,12.3-17.6,27.1-20.9,43.3c-0.3,1.7-0.2,3.4,1.3,4.5c5.1,3.8,7.7,9.4,10.6,14.8
		c-0.4,5.3-0.9,10.6-4.9,14.6c-1,1-0.9,2.4-0.5,3.7c2.9,9.7,5.2,19.5,7,29.4c3.2,3.6,2.6,8.1,2.9,12.3c1,14.5-1.1,28.6-5.1,42.5
		c-0.4,1.3-0.8,2.6-2.2,3.1c-1.8,0.9-2.1,2.9-3,4.4c-1.8,3-3.6,5.9-6,8.4c-7.5,7.6-15.9,7.7-23.3,0c-2.7-2.8-5.1-6-7.7-9
		c-2.5-0.8-2.8-3-3.5-5.1c-5.7-16.4-7.5-33.4-6.9-50.7C224,279.4,225,277.2,226.4,275z"/>
	<path class="st3" d="M226.4,275c-1.3,21.5,0.8,42.5,7.8,63c-1.7,10-3.2,19.9-8.7,28.8c-6,9.6-14.6,14.1-25.8,13.6
		c-7.9-0.3-12.2-3.7-14.2-11.4c-2.2-8.4-3.2-16.9-2.8-25.6c0.3-7.4,0.3-7.5-6.7-4.4c-6.9,3-13.9,5.3-21.2,6.9
		c-3.6,0.8-7.2,0.9-10.8,0.1c-8.6-1.9-13.4-8.5-11.9-17.2c2.5-14.8,7.8-28.4,18.3-39.5c6.5-2.5,12.8-5.3,19.4-7.3
		c16.4-5,33.4-6.3,50.5-6.3C222.3,275.8,224.4,276.2,226.4,275z"/>
	<path class="st3" d="M274.2,334.2c0.1-1.8-0.1-3.7,0.5-5.4c5-16.4,5.9-33.1,3.6-50.1c-0.1-0.8,0.2-1.6,0.3-2.4
		c18.7-0.8,37.3-0.3,55.6,4.3c6.1,1.5,11.3,5.3,17.5,6.6c3,4.7,7.6,8.2,10.5,13.1c3.9,6.6,7.2,13.4,8.4,21.1
		c1.9,12.6-5.2,20.3-17.8,19.4c-8.9-0.6-17.2-3.2-25.3-6.9c-4.9-2.2-4.8-2.3-4.5,3c0.5,8.6,0.8,17.2-0.9,25.7
		c-1.4,7.2-6,10.9-12.8,12c-7.8,1.3-14.7-0.8-20.5-6.5C279.2,358.8,275.2,347.1,274.2,334.2z"/>
	<path class="st3" d="M340.3,257.2c-7.9,1.7-17.8,1.4-27.7,0.5c-2.8-0.3-4.2-1.7-4.3-4.4c-0.7-13,0-25.8,4.4-38.2
		c2.2-6.2,7.1-9.4,13.5-10.3c4.5-0.6,8.5,2.1,9.9,6.5c1.1,3.6,0.7,7.2,0.2,10.8c-0.8,6.8-0.8,6.8,5.7,5.1c3-0.8,6.1-1.6,9.3-1.5
		c6.6,0.2,10,4.1,9.1,10.6C359.1,245.2,351.1,254.3,340.3,257.2z"/>
	<path class="st4" d="M349.2,206.8c-2.1-8.1,4-19,12-21.5c5.5-1.7,10,0.9,11.1,6.6c1.6,8-4.7,18.5-12.5,20.9
		C354.8,214.3,350.5,211.9,349.2,206.8z"/>
	<path class="st3" d="M191.4,225.4c2.1,9.8,3.2,19.8,2.5,30c-0.2,2.9-1.4,4.2-4.2,4.5c-9.1,0.8-18.1,1.9-27.2,0.4
		c-10.5-1.8-19.7-11.2-21-21.8c-0.7-5.5,2.8-9.4,8.9-9.2c3.8,0.1,7.6,0.6,11.2,1.6c3.4,0.9,4.2,0,3.8-3.2c-0.4-3.3-1-6.6-0.9-9.9
		c0.3-8.5,6.9-12.3,14.9-9.1C187,211.7,189.1,218.5,191.4,225.4z"/>
	<path class="st5" d="M152.9,204c0.3,1,0.6,3.4,0,5.9c-1.2,5.7-6.3,8.4-11.7,6.2c-6.5-2.6-12.2-11-12-18.1c0.2-8,6.9-11.8,13.9-7.8
		C147.9,193.1,151.1,197.1,152.9,204z"/>
	<path class="st6" d="M265.7,297.2c0.3,0.9,0.2,1.7-0.5,2.3c-0.9,0.8-1.9,0.7-2.7,0c-6.1-5.1-12.1-4-18.1,0.3c-1,0.7-2.1,1-3.1-0.1
		c-0.8-0.9-0.5-1.8,0.1-2.7c3.9-6.6,20-6.9,23.9-0.5C265.4,296.7,265.5,297,265.7,297.2z"/>
	<path class="st7" d="M251,272.6c4.2-0.9,7.9,0.8,10.9,4.3c0.8,0.9,1.4,2,0.6,3.1c-0.9,1.3-2,0.5-2.9-0.3c-4.3-3.7-8.6-3.6-12.8,0.2
		c-0.9,0.8-1.9,1.8-3,0.8c-1.2-1.1-0.6-2.4,0.3-3.5C245.7,274.9,247.8,273.4,251,272.6z"/>
	<path class="st8" d="M263.2,317.7c0.2,1,0.4,1.9-0.4,2.5c-0.8,0.6-1.6,0.3-2.2-0.3c-4.7-4.5-9.2-3.6-13.5,0.5
		c-0.6,0.6-1.4,0.9-2.3,0.5c-0.9-0.5-0.9-1.3-0.7-2.1c0.6-2.8,6-6.3,9.9-6.3C258.1,312.4,261.2,314.2,263.2,317.7z"/>
</g>
</svg>
