<?xml version="1.0" encoding="utf-8"?>
<!-- Generator: Adobe Illustrator 27.0.0, SVG Export Plug-In . SVG Version: 6.00 Build 0)  -->
<svg version="1.1" id="Layer_1" xmlns="http://www.w3.org/2000/svg" xmlns:xlink="http://www.w3.org/1999/xlink" x="0px" y="0px"
	 viewBox="0 0 512 512" style="enable-background:new 0 0 512 512;" xml:space="preserve">
<style type="text/css">
	.st0{fill:#79C2F6;}
	.st1{display:none;fill:url(#SVGID_1_);}
	.st2{display:none;}
	.st3{display:inline;fill:url(#SVGID_00000088850547965638840620000000196750037612309121_);}
	.st4{display:inline;fill:url(#SVGID_00000011744368722295163180000009094981251186361480_);}
	.st5{display:inline;fill:url(#SVGID_00000091695838054605714680000005423185838286306220_);}
	.st6{display:inline;fill:url(#SVGID_00000155825115547249467460000004198170065656501153_);}
	.st7{display:inline;fill:url(#SVGID_00000093865477538309564190000007211326047710254767_);}
	.st8{display:inline;fill:url(#SVGID_00000014608573625131379460000015539476123034392982_);}
	.st9{display:inline;fill:url(#SVGID_00000036951918543996135470000014588779359765284491_);}
	.st10{display:inline;fill:url(#SVGID_00000106829403714636560790000005975464203039253379_);}
	.st11{display:inline;fill:url(#SVGID_00000150808722794082084880000014802776632379113879_);}
	.st12{display:inline;fill:url(#SVGID_00000052820083147990567390000017699412134241208455_);}
	.st13{display:inline;fill:url(#SVGID_00000052818885589912895540000013007974704937385658_);}
	.st14{display:inline;fill:url(#SVGID_00000106841926902297524100000012147743838349077653_);}
	.st15{fill:url(#SVGID_00000070819931120881733350000014550393384682880917_);}
</style>
<rect class="st0" width="512" height="512"/>
<linearGradient id="SVGID_1_" gradientUnits="userSpaceOnUse" x1="157.0311" y1="362.5089" x2="370.1232" y2="149.4169" gradientTransform="matrix(1 0 0 -1 0 512)">
	<stop  offset="0" style="stop-color:#B1FF3B"/>
	<stop  offset="0.0427" style="stop-color:#95FF38"/>
	<stop  offset="0.1148" style="stop-color:#6BFE33"/>
	<stop  offset="0.1886" style="stop-color:#49FE2F"/>
	<stop  offset="0.2632" style="stop-color:#2EFD2C"/>
	<stop  offset="0.3391" style="stop-color:#1BFD2A"/>
	<stop  offset="0.417" style="stop-color:#10FD28"/>
	<stop  offset="0.5" style="stop-color:#0CFD28"/>
	<stop  offset="1" style="stop-color:#3FF3F0"/>
</linearGradient>
<path class="st1" d="M129.96,231.29v49.53c0,7.35-5.72,13.24-13.4,13.24c-7.36,0-12.91-5.89-12.91-13.24v-49.53
	c0-7.36,5.56-13.4,12.91-13.4C124.24,217.89,129.96,223.94,129.96,231.29z M171.64,151.04c-7.36,0-13.08,6.05-13.08,13.4v183.24
	c0,7.36,5.72,13.24,13.08,13.24c7.52,0,13.24-5.88,13.24-13.24V164.44C184.88,157.08,179.16,151.04,171.64,151.04z M226.56,85.32
	c-7.36,0-12.91,5.88-12.91,13.24v314.99c0,7.35,5.56,13.24,12.91,13.24c7.52,0,13.4-5.89,13.4-13.24V98.56
	C239.97,91.21,234.08,85.32,226.56,85.32z M281.65,170.98c-7.52,0-13.08,5.88-13.08,13.24V327.9c0,7.35,5.56,13.08,13.08,13.08
	s13.24-5.72,13.24-13.08V184.22C294.89,176.86,289.17,170.98,281.65,170.98z M336.74,121.45c-7.68,0-13.24,6.05-13.24,13.24v242.74
	c0,7.19,5.56,13.08,13.24,13.08c7.35,0,13.08-5.88,13.08-13.08V134.69C349.81,127.5,344.09,121.45,336.74,121.45z M391.66,203.83
	c-7.52,0-13.08,6.05-13.08,13.24v77.97c0,7.19,5.56,13.08,13.08,13.08c7.36,0,13.24-5.88,13.24-13.08v-77.97
	C404.9,209.88,399.01,203.83,391.66,203.83z"/>
<g class="st2">
	
		<linearGradient id="SVGID_00000057835885851075308160000000531724530030982844_" gradientUnits="userSpaceOnUse" x1="116.805" y1="294.11" x2="116.805" y2="217.94" gradientTransform="matrix(1 0 0 -1 0 512)">
		<stop  offset="0" style="stop-color:#B1FF3B"/>
		<stop  offset="0.0427" style="stop-color:#95FF38"/>
		<stop  offset="0.1148" style="stop-color:#6BFE33"/>
		<stop  offset="0.1886" style="stop-color:#49FE2F"/>
		<stop  offset="0.2632" style="stop-color:#2EFD2C"/>
		<stop  offset="0.3391" style="stop-color:#1BFD2A"/>
		<stop  offset="0.417" style="stop-color:#10FD28"/>
		<stop  offset="0.5" style="stop-color:#0CFD28"/>
		<stop  offset="1" style="stop-color:#3FF3F0"/>
	</linearGradient>
	<path style="display:inline;fill:url(#SVGID_00000057835885851075308160000000531724530030982844_);" d="M129.96,231.29v49.53
		c0,7.35-5.72,13.24-13.4,13.24c-7.36,0-12.91-5.89-12.91-13.24v-49.53c0-7.36,5.56-13.4,12.91-13.4
		C124.24,217.89,129.96,223.94,129.96,231.29z"/>
	
		<linearGradient id="SVGID_00000162314686774547317460000000838507890341360788_" gradientUnits="userSpaceOnUse" x1="171.72" y1="360.96" x2="171.72" y2="151.08" gradientTransform="matrix(1 0 0 -1 0 512)">
		<stop  offset="0" style="stop-color:#B1FF3B"/>
		<stop  offset="0.0427" style="stop-color:#95FF38"/>
		<stop  offset="0.1148" style="stop-color:#6BFE33"/>
		<stop  offset="0.1886" style="stop-color:#49FE2F"/>
		<stop  offset="0.2632" style="stop-color:#2EFD2C"/>
		<stop  offset="0.3391" style="stop-color:#1BFD2A"/>
		<stop  offset="0.417" style="stop-color:#10FD28"/>
		<stop  offset="0.5" style="stop-color:#0CFD28"/>
		<stop  offset="1" style="stop-color:#3FF3F0"/>
	</linearGradient>
	<path style="display:inline;fill:url(#SVGID_00000162314686774547317460000000838507890341360788_);" d="M171.64,151.04
		c-7.36,0-13.08,6.05-13.08,13.4v183.24c0,7.36,5.72,13.24,13.08,13.24c7.52,0,13.24-5.88,13.24-13.24V164.44
		C184.88,157.08,179.16,151.04,171.64,151.04z"/>
	
		<linearGradient id="SVGID_00000180356487356431520650000002954783130161923739_" gradientUnits="userSpaceOnUse" x1="226.805" y1="426.68" x2="226.805" y2="85.21" gradientTransform="matrix(1 0 0 -1 0 512)">
		<stop  offset="0" style="stop-color:#B1FF3B"/>
		<stop  offset="0.0427" style="stop-color:#95FF38"/>
		<stop  offset="0.1148" style="stop-color:#6BFE33"/>
		<stop  offset="0.1886" style="stop-color:#49FE2F"/>
		<stop  offset="0.2632" style="stop-color:#2EFD2C"/>
		<stop  offset="0.3391" style="stop-color:#1BFD2A"/>
		<stop  offset="0.417" style="stop-color:#10FD28"/>
		<stop  offset="0.5" style="stop-color:#0CFD28"/>
		<stop  offset="1" style="stop-color:#3FF3F0"/>
	</linearGradient>
	<path style="display:inline;fill:url(#SVGID_00000180356487356431520650000002954783130161923739_);" d="M226.56,85.32
		c-7.36,0-12.91,5.88-12.91,13.24v314.99c0,7.35,5.56,13.24,12.91,13.24c7.52,0,13.4-5.89,13.4-13.24V98.56
		C239.97,91.21,234.08,85.32,226.56,85.32z"/>
	
		<linearGradient id="SVGID_00000167391634806161116230000015276722001138925219_" gradientUnits="userSpaceOnUse" x1="281.73" y1="341.02" x2="281.73" y2="171.02" gradientTransform="matrix(1 0 0 -1 0 512)">
		<stop  offset="0" style="stop-color:#B1FF3B"/>
		<stop  offset="0.0427" style="stop-color:#95FF38"/>
		<stop  offset="0.1148" style="stop-color:#6BFE33"/>
		<stop  offset="0.1886" style="stop-color:#49FE2F"/>
		<stop  offset="0.2632" style="stop-color:#2EFD2C"/>
		<stop  offset="0.3391" style="stop-color:#1BFD2A"/>
		<stop  offset="0.417" style="stop-color:#10FD28"/>
		<stop  offset="0.5" style="stop-color:#0CFD28"/>
		<stop  offset="1" style="stop-color:#3FF3F0"/>
	</linearGradient>
	<path style="display:inline;fill:url(#SVGID_00000167391634806161116230000015276722001138925219_);" d="M281.65,170.98
		c-7.52,0-13.08,5.88-13.08,13.24V327.9c0,7.35,5.56,13.08,13.08,13.08s13.24-5.72,13.24-13.08V184.22
		C294.89,176.86,289.17,170.98,281.65,170.98z"/>
	
		<linearGradient id="SVGID_00000023992794525803135130000015281890792205657761_" gradientUnits="userSpaceOnUse" x1="336.66" y1="390.55" x2="336.66" y2="121.49" gradientTransform="matrix(1 0 0 -1 0 512)">
		<stop  offset="0" style="stop-color:#B1FF3B"/>
		<stop  offset="0.0427" style="stop-color:#95FF38"/>
		<stop  offset="0.1148" style="stop-color:#6BFE33"/>
		<stop  offset="0.1886" style="stop-color:#49FE2F"/>
		<stop  offset="0.2632" style="stop-color:#2EFD2C"/>
		<stop  offset="0.3391" style="stop-color:#1BFD2A"/>
		<stop  offset="0.417" style="stop-color:#10FD28"/>
		<stop  offset="0.5" style="stop-color:#0CFD28"/>
		<stop  offset="1" style="stop-color:#3FF3F0"/>
	</linearGradient>
	<path style="display:inline;fill:url(#SVGID_00000023992794525803135130000015281890792205657761_);" d="M336.74,121.45
		c-7.68,0-13.24,6.05-13.24,13.24v242.74c0,7.19,5.56,13.08,13.24,13.08c7.35,0,13.08-5.88,13.08-13.08V134.69
		C349.81,127.5,344.09,121.45,336.74,121.45z"/>
	
		<linearGradient id="SVGID_00000040561251921766694460000013211528998237226173_" gradientUnits="userSpaceOnUse" x1="391.74" y1="308.17" x2="391.74" y2="203.88" gradientTransform="matrix(1 0 0 -1 0 512)">
		<stop  offset="0" style="stop-color:#B1FF3B"/>
		<stop  offset="0.03" style="stop-color:#95FF38"/>
		<stop  offset="0.0806" style="stop-color:#6BFE33"/>
		<stop  offset="0.1324" style="stop-color:#49FE2F"/>
		<stop  offset="0.1848" style="stop-color:#2EFD2C"/>
		<stop  offset="0.2381" style="stop-color:#1BFD2A"/>
		<stop  offset="0.2928" style="stop-color:#10FD28"/>
		<stop  offset="0.3511" style="stop-color:#0CFD28"/>
		<stop  offset="1" style="stop-color:#3FF3F0"/>
	</linearGradient>
	<path style="display:inline;fill:url(#SVGID_00000040561251921766694460000013211528998237226173_);" d="M391.66,203.83
		c-7.52,0-13.08,6.05-13.08,13.24v77.97c0,7.19,5.56,13.08,13.08,13.08c7.36,0,13.24-5.88,13.24-13.08v-77.97
		C404.9,209.88,399.01,203.83,391.66,203.83z"/>
</g>
<g class="st2">
	
		<linearGradient id="SVGID_00000145760863786238389210000015674672169469452436_" gradientUnits="userSpaceOnUse" x1="116.805" y1="217.94" x2="116.805" y2="294.11" gradientTransform="matrix(1 0 0 -1 0 512)">
		<stop  offset="0" style="stop-color:#B1FF3B"/>
		<stop  offset="0.0427" style="stop-color:#95FF38"/>
		<stop  offset="0.1148" style="stop-color:#6BFE33"/>
		<stop  offset="0.1886" style="stop-color:#49FE2F"/>
		<stop  offset="0.2632" style="stop-color:#2EFD2C"/>
		<stop  offset="0.3391" style="stop-color:#1BFD2A"/>
		<stop  offset="0.417" style="stop-color:#10FD28"/>
		<stop  offset="0.5" style="stop-color:#0CFD28"/>
		<stop  offset="1" style="stop-color:#3FF3F0"/>
	</linearGradient>
	<path style="display:inline;fill:url(#SVGID_00000145760863786238389210000015674672169469452436_);" d="M129.96,231.29v49.53
		c0,7.35-5.72,13.24-13.4,13.24c-7.36,0-12.91-5.89-12.91-13.24v-49.53c0-7.36,5.56-13.4,12.91-13.4
		C124.24,217.89,129.96,223.94,129.96,231.29z"/>
	
		<linearGradient id="SVGID_00000014618761856423392970000009025595486514880186_" gradientUnits="userSpaceOnUse" x1="171.72" y1="360.96" x2="171.72" y2="151.08" gradientTransform="matrix(1 0 0 -1 0 512)">
		<stop  offset="0" style="stop-color:#B1FF3B"/>
		<stop  offset="0.0427" style="stop-color:#95FF38"/>
		<stop  offset="0.1148" style="stop-color:#6BFE33"/>
		<stop  offset="0.1886" style="stop-color:#49FE2F"/>
		<stop  offset="0.2632" style="stop-color:#2EFD2C"/>
		<stop  offset="0.3391" style="stop-color:#1BFD2A"/>
		<stop  offset="0.417" style="stop-color:#10FD28"/>
		<stop  offset="0.5" style="stop-color:#0CFD28"/>
		<stop  offset="1" style="stop-color:#3FF3F0"/>
	</linearGradient>
	<path style="display:inline;fill:url(#SVGID_00000014618761856423392970000009025595486514880186_);" d="M171.64,151.04
		c-7.36,0-13.08,6.05-13.08,13.4v183.24c0,7.36,5.72,13.24,13.08,13.24c7.52,0,13.24-5.88,13.24-13.24V164.44
		C184.88,157.08,179.16,151.04,171.64,151.04z"/>
	
		<linearGradient id="SVGID_00000018915473957743721540000018172113986664807307_" gradientUnits="userSpaceOnUse" x1="226.805" y1="85.21" x2="226.805" y2="426.68" gradientTransform="matrix(1 0 0 -1 0 512)">
		<stop  offset="0" style="stop-color:#B1FF3B"/>
		<stop  offset="0.0427" style="stop-color:#95FF38"/>
		<stop  offset="0.1148" style="stop-color:#6BFE33"/>
		<stop  offset="0.1886" style="stop-color:#49FE2F"/>
		<stop  offset="0.2632" style="stop-color:#2EFD2C"/>
		<stop  offset="0.3391" style="stop-color:#1BFD2A"/>
		<stop  offset="0.417" style="stop-color:#10FD28"/>
		<stop  offset="0.5" style="stop-color:#0CFD28"/>
		<stop  offset="1" style="stop-color:#3FF3F0"/>
	</linearGradient>
	<path style="display:inline;fill:url(#SVGID_00000018915473957743721540000018172113986664807307_);" d="M226.56,85.32
		c-7.36,0-12.91,5.88-12.91,13.24v314.99c0,7.35,5.56,13.24,12.91,13.24c7.52,0,13.4-5.89,13.4-13.24V98.56
		C239.97,91.21,234.08,85.32,226.56,85.32z"/>
	
		<linearGradient id="SVGID_00000018918083883777811630000004611583559912245433_" gradientUnits="userSpaceOnUse" x1="281.73" y1="341.02" x2="281.73" y2="171.02" gradientTransform="matrix(1 0 0 -1 0 512)">
		<stop  offset="0" style="stop-color:#B1FF3B"/>
		<stop  offset="0.0427" style="stop-color:#95FF38"/>
		<stop  offset="0.1148" style="stop-color:#6BFE33"/>
		<stop  offset="0.1886" style="stop-color:#49FE2F"/>
		<stop  offset="0.2632" style="stop-color:#2EFD2C"/>
		<stop  offset="0.3391" style="stop-color:#1BFD2A"/>
		<stop  offset="0.417" style="stop-color:#10FD28"/>
		<stop  offset="0.5" style="stop-color:#0CFD28"/>
		<stop  offset="1" style="stop-color:#3FF3F0"/>
	</linearGradient>
	<path style="display:inline;fill:url(#SVGID_00000018918083883777811630000004611583559912245433_);" d="M281.65,170.98
		c-7.52,0-13.08,5.88-13.08,13.24V327.9c0,7.35,5.56,13.08,13.08,13.08s13.24-5.72,13.24-13.08V184.22
		C294.89,176.86,289.17,170.98,281.65,170.98z"/>
	
		<linearGradient id="SVGID_00000070807659589505100080000013367495101672396948_" gradientUnits="userSpaceOnUse" x1="336.66" y1="121.49" x2="336.66" y2="390.55" gradientTransform="matrix(1 0 0 -1 0 512)">
		<stop  offset="0" style="stop-color:#B1FF3B"/>
		<stop  offset="0.0427" style="stop-color:#95FF38"/>
		<stop  offset="0.1148" style="stop-color:#6BFE33"/>
		<stop  offset="0.1886" style="stop-color:#49FE2F"/>
		<stop  offset="0.2632" style="stop-color:#2EFD2C"/>
		<stop  offset="0.3391" style="stop-color:#1BFD2A"/>
		<stop  offset="0.417" style="stop-color:#10FD28"/>
		<stop  offset="0.5" style="stop-color:#0CFD28"/>
		<stop  offset="1" style="stop-color:#3FF3F0"/>
	</linearGradient>
	<path style="display:inline;fill:url(#SVGID_00000070807659589505100080000013367495101672396948_);" d="M336.74,121.45
		c-7.68,0-13.24,6.05-13.24,13.24v242.74c0,7.19,5.56,13.08,13.24,13.08c7.35,0,13.08-5.88,13.08-13.08V134.69
		C349.81,127.5,344.09,121.45,336.74,121.45z"/>
	
		<linearGradient id="SVGID_00000136393012750434764500000015514595737648377264_" gradientUnits="userSpaceOnUse" x1="391.74" y1="308.17" x2="391.74" y2="203.88" gradientTransform="matrix(1 0 0 -1 0 512)">
		<stop  offset="0" style="stop-color:#B1FF3B"/>
		<stop  offset="0.03" style="stop-color:#95FF38"/>
		<stop  offset="0.0806" style="stop-color:#6BFE33"/>
		<stop  offset="0.1324" style="stop-color:#49FE2F"/>
		<stop  offset="0.1848" style="stop-color:#2EFD2C"/>
		<stop  offset="0.2381" style="stop-color:#1BFD2A"/>
		<stop  offset="0.2928" style="stop-color:#10FD28"/>
		<stop  offset="0.3511" style="stop-color:#0CFD28"/>
		<stop  offset="1" style="stop-color:#3FF3F0"/>
	</linearGradient>
	<path style="display:inline;fill:url(#SVGID_00000136393012750434764500000015514595737648377264_);" d="M391.66,203.83
		c-7.52,0-13.08,6.05-13.08,13.24v77.97c0,7.19,5.56,13.08,13.08,13.08c7.36,0,13.24-5.88,13.24-13.08v-77.97
		C404.9,209.88,399.01,203.83,391.66,203.83z"/>
</g>
<linearGradient id="SVGID_00000063631263482730164500000012955787971229978510_" gradientUnits="userSpaceOnUse" x1="158.2286" y1="406.1799" x2="353.8929" y2="210.5155" gradientTransform="matrix(1 0 0 -1 0 512)">
	<stop  offset="0" style="stop-color:#49008D"/>
	<stop  offset="0.5" style="stop-color:#D200AB"/>
	<stop  offset="1" style="stop-color:#FE6972"/>
</linearGradient>
<path style="fill:url(#SVGID_00000063631263482730164500000012955787971229978510_);" d="M256,395.66l-15.51-14.7
	c-28.85-26.94-52.39-49.6-70.62-67.97s-32.45-34.22-42.66-47.56c-10.21-13.33-17.14-25.38-20.82-36.13
	c-3.67-10.75-5.51-21.7-5.51-32.86c0-22.32,7.82-41.23,23.47-56.74s34.77-23.27,57.35-23.27c13.33,0,26.4,3.54,39.19,10.61
	c12.79,7.08,24.49,17.42,35.11,31.02c10.61-13.61,22.32-23.95,35.11-31.02c12.79-7.08,25.85-10.61,39.19-10.61
	c22.59,0,41.7,7.76,57.35,23.27s23.47,34.43,23.47,56.74c0,11.16-1.84,22.11-5.51,32.86s-10.61,22.79-20.82,36.13
	c-10.21,13.33-24.36,29.19-42.45,47.56s-41.7,41.02-70.82,67.97L256,395.66z M256,365.46c26.67-24.49,48.58-45.31,65.72-62.46
	c17.14-17.14,30.75-32.04,40.82-44.7c10.07-12.65,17.01-23.74,20.82-33.27c3.81-9.52,5.71-19.05,5.71-28.57
	c0-16.6-5.51-30.41-16.53-41.43s-25.1-16.53-42.25-16.53c-12.52,0-24.42,3.81-35.72,11.43c-11.29,7.62-20.61,18.23-27.96,31.84
	h-21.23c-7.62-13.88-17.01-24.56-28.17-32.04c-11.16-7.48-23-11.23-35.51-11.23c-16.87,0-30.89,5.51-42.04,16.53
	c-11.16,11.02-16.74,24.83-16.74,41.43c0,9.52,1.9,19.05,5.71,28.57s10.75,20.61,20.82,33.27c10.07,12.65,23.68,27.49,40.82,44.49
	C207.42,319.81,229.33,340.69,256,365.46z"/>
</svg>
