<?xml version="1.0" encoding="utf-8"?>
<!-- Generator: Adobe Illustrator 27.0.0, SVG Export Plug-In . SVG Version: 6.00 Build 0)  -->
<svg version="1.1" id="Layer_1" xmlns="http://www.w3.org/2000/svg" xmlns:xlink="http://www.w3.org/1999/xlink" x="0px" y="0px"
	 viewBox="0 0 512 512" style="enable-background:new 0 0 512 512;" xml:space="preserve">
<style type="text/css">
	.st0{fill:#79C2F6;}
	.st1{fill:#49008D;}
	.st2{fill:#FE6972;}
	.st3{fill:#D200AB;}
	.st4{fill:#FD6872;}
	.st5{fill:#FD6774;}
	.st6{fill:#48426B;}
	.st7{fill:#4D426A;}
	.st8{fill:#4B4168;}
</style>
<rect x="0" y="0" class="st0" width="512" height="512"/>
<g>
	<path class="st1" d="M281.63,222.68c13.9-18.51,28.16-36.7,45.6-52.1c15.57-13.74,32.28-25.55,52.97-30.4
		c7.16-1.68,14.34-1.92,21.57-0.42c10.59,2.21,17.55,9.86,18.84,20.59c1.07,8.92-0.61,17.59-2.45,26.21
		c-5.54,25.88-11.3,51.71-22.15,76.04c-3.36,7.52-7.29,14.78-12.99,20.87c-3.66,3.9-7.7,7.27-13.02,8.68
		c-2.09,2.82-4.57,1.57-6.83,0.46c-19.4-9.57-40.36-10.51-61.37-11.09c-4.5-0.12-9.01-0.1-13.52,0.01
		c-2.45,0.06-4.67-0.46-6.47-2.27c-1.65-1.85-2.32-4.19-2.48-6.49c-0.61-8.5-3.72-16.39-5.74-24.54c-1.15-4.66-1.14-8.85,2.15-12.69
		c1.85-2.16,2.3-4.93,2.82-7.63C278.96,225.81,279.19,223.6,281.63,222.68z"/>
	<path class="st1" d="M131.67,294.79c-4.4-2.11-8.67-4.38-11.32-8.76c-8.45-11.8-15-24.6-20.13-38.16
		c-4.3-11.36-7.68-22.98-9.84-34.93c-1.53-8.47-3.33-16.9-5.78-25.12c-2.73-9.18-3.47-18.28-1.9-27.65
		c2.31-9.82,9.52-13.94,18.59-15.48c14.63-2.48,28.44,0.54,41.66,6.9c20.29,9.77,36.79,24.41,52.12,40.54
		c9.46,9.95,17.77,20.88,26.47,31.48c0.19,0.02,0.54,0.01,0.56,0.08c2.49,9.52,12.62,16.89,7.4,28.67
		c-2.34,5.28-3.49,11.15-4.01,17.06c-0.28,3.24-0.39,6.7-2.83,9.38c-2.63,2.55-5.96,2.55-9.3,2.6c-18.55,0.26-37,1.42-55.04,6.16
		c-6.62,1.74-12.81,4.63-19.13,7.15C136.74,295.68,134.2,297.42,131.67,294.79z"/>
	<path class="st2" d="M221.8,277.72c1.09-10.87,2.8-21.61,7.29-31.7c0.55-1.24,1.56-2.76,0.15-3.71c-6.79-4.55-6.51-11.9-7.69-18.69
		c3.57-7.61,6.51-15.64,14.14-20.49c1.49-0.95,1.36-2.57,0.95-4.25c-4.4-18.06-12.28-34.27-25.16-47.88
		c-3.04-3.21-6.39-5.32-11.02-6c-9.66-1.4-15.41-9.02-14.92-18.76c0.34-6.63,5.63-10.21,11.95-7.89
		c7.02,2.58,11.35,7.75,12.62,15.04c1.02,5.87,3.8,10.34,7.89,14.6c12.37,12.84,20.42,28.22,24.75,45.46
		c1.19,4.74,3.16,6.89,8.13,5.47c1.09-0.31,2.39-0.32,3.5-0.07c4.37,1,5.79-1.14,6.57-5.11c3.49-17.68,10.87-33.56,23.26-46.77
		c3.93-4.19,6.85-8.17,8.16-14.19c1.66-7.63,7.52-12.67,15.65-14.22c4.37-0.83,8.48-0.26,11,3.64c2.65,4.1,1.73,8.42-1.25,12.03
		c-4.77,5.79-10.85,9.7-18.38,10.68c-2.97,0.38-5.1,1.56-7.05,3.66c-13.54,14.54-20.78,32.09-24.73,51.24
		c-0.41,2.01-0.27,4.01,1.51,5.36c5.98,4.55,9.17,11.07,12.51,17.49c-0.47,6.28-1.06,12.49-5.85,17.34
		c-1.23,1.24-1.02,2.85-0.55,4.43c3.47,11.45,6.12,23.1,8.3,34.86c3.73,4.21,3.13,9.59,3.49,14.52c1.24,17.12-1.3,33.87-6.05,50.32
		c-0.44,1.52-0.9,3.03-2.59,3.66c-2.1,1.12-2.48,3.42-3.55,5.23c-2.09,3.53-4.23,7.01-7.13,9.97c-8.83,9.04-18.82,9.1-27.55-0.04
		c-3.22-3.37-6.08-7.1-9.1-10.66c-2.92-0.93-3.28-3.61-4.1-5.98c-6.7-19.46-8.91-39.5-8.17-59.99
		C218.92,282.97,220.11,280.35,221.8,277.72z"/>
	<path class="st3" d="M221.8,277.72c-1.55,25.44,0.95,50.37,9.26,74.59c-1.99,11.8-3.82,23.59-10.35,34.07
		c-7.11,11.41-17.32,16.64-30.58,16.13c-9.4-0.37-14.44-4.42-16.81-13.48c-2.59-9.92-3.81-20.01-3.33-30.28
		c0.41-8.81,0.36-8.86-7.99-5.23c-8.12,3.52-16.47,6.3-25.13,8.18c-4.28,0.93-8.55,1.1-12.84,0.16
		c-10.19-2.25-15.83-10.02-14.06-20.33c3.01-17.48,9.24-33.57,21.68-46.73c7.64-2.91,15.15-6.24,22.95-8.63
		c19.45-5.96,39.52-7.41,59.75-7.42C216.89,278.73,219.47,279.14,221.8,277.72z"/>
	<path class="st3" d="M278.39,347.81c0.16-2.13-0.06-4.38,0.55-6.37c5.97-19.43,7.01-39.19,4.3-59.25c-0.13-0.93,0.19-1.92,0.3-2.88
		c22.13-0.9,44.11-0.35,65.78,5.07c7.25,1.81,13.38,6.28,20.67,7.79c3.6,5.59,8.96,9.75,12.41,15.52
		c4.67,7.82,8.56,15.92,9.93,24.96c2.25,14.87-6.15,24.04-21.05,23.02c-10.48-0.72-20.38-3.82-29.91-8.16
		c-5.8-2.64-5.66-2.67-5.33,3.5c0.54,10.18,0.89,20.33-1.12,30.46c-1.69,8.52-7.08,12.87-15.15,14.19
		c-9.27,1.51-17.42-0.9-24.22-7.65C284.35,376.9,279.62,363.12,278.39,347.81z"/>
	<path class="st3" d="M356.69,256.64c-9.32,2.05-21.03,1.65-32.76,0.56c-3.27-0.31-4.93-1.99-5.11-5.26
		c-0.82-15.35-0.04-30.54,5.18-45.18c2.64-7.39,8.4-11.07,15.95-12.15c5.3-0.75,10.09,2.48,11.68,7.65c1.3,4.24,0.8,8.49,0.26,12.8
		c-0.99,8-0.89,8.02,6.74,5.99c3.6-0.96,7.17-1.92,10.96-1.82c7.82,0.21,11.79,4.81,10.74,12.59
		C378.9,242.48,369.4,253.24,356.69,256.64z"/>
	<path class="st4" d="M367.18,196.96c-2.51-9.58,4.72-22.51,14.23-25.42c6.54-2,11.81,1.12,13.15,7.79
		c1.9,9.43-5.58,21.9-14.81,24.71C373.78,205.85,368.77,203.03,367.18,196.96z"/>
	<path class="st3" d="M180.35,219.06c2.43,11.62,3.75,23.44,2.91,35.48c-0.24,3.39-1.69,4.99-4.95,5.29
		c-10.73,1-21.45,2.25-32.22,0.43c-12.42-2.1-23.27-13.26-24.88-25.75c-0.85-6.54,3.28-11.1,10.58-10.93
		c4.46,0.1,9.01,0.76,13.31,1.94c4.07,1.12,5.02,0,4.5-3.83c-0.52-3.87-1.21-7.8-1.07-11.67c0.38-10.02,8.12-14.55,17.6-10.79
		C175.13,202.8,177.6,210.91,180.35,219.06z"/>
	<path class="st5" d="M134.84,193.65c0.35,1.19,0.7,4.06,0.05,7.03c-1.47,6.76-7.43,9.96-13.87,7.39
		c-7.75-3.09-14.39-13.08-14.23-21.4c0.19-9.45,8.16-13.94,16.41-9.21C128.93,180.75,132.68,185.58,134.84,193.65z"/>
	<path class="st6" d="M268.28,304.04c0.35,1.11,0.22,2.04-0.58,2.77c-1.05,0.95-2.21,0.78-3.18-0.04
		c-7.25-6.07-14.33-4.77-21.43,0.31c-1.15,0.83-2.54,1.19-3.69-0.14c-0.92-1.06-0.54-2.1,0.11-3.2c4.61-7.77,23.66-8.22,28.27-0.64
		C267.98,303.44,268.14,303.79,268.28,304.04z"/>
	<path class="st7" d="M250.87,274.88c4.94-1.08,9.31,0.92,12.89,5.04c0.93,1.07,1.67,2.42,0.72,3.7c-1.12,1.52-2.35,0.63-3.45-0.31
		c-5.11-4.37-10.15-4.29-15.15,0.2c-1.01,0.9-2.21,2.12-3.51,0.89c-1.37-1.3-0.68-2.87,0.34-4.19
		C244.66,277.67,247.15,275.89,250.87,274.88z"/>
	<path class="st8" d="M265.33,328.25c0.25,1.23,0.45,2.22-0.49,2.92c-0.97,0.72-1.92,0.31-2.64-0.37
		c-5.57-5.27-10.85-4.21-16.01,0.65c-0.72,0.68-1.66,1.11-2.67,0.56c-1.02-0.55-1.06-1.52-0.85-2.53c0.66-3.28,7.15-7.5,11.75-7.49
		C259.31,322.01,263.02,324.16,265.33,328.25z"/>
</g>
</svg>
