<?xml version="1.0" encoding="utf-8"?>
<!-- Generator: Adobe Illustrator 27.0.0, SVG Export Plug-In . SVG Version: 6.00 Build 0)  -->
<svg version="1.1" id="Layer_1" xmlns="http://www.w3.org/2000/svg" xmlns:xlink="http://www.w3.org/1999/xlink" x="0px" y="0px"
	 viewBox="0 0 512 512" style="enable-background:new 0 0 512 512;" xml:space="preserve">
<style type="text/css">
	.st0{fill:#49008D;}
	.st1{fill:#FE6972;}
	.st2{fill:#D200AB;}
	.st3{fill:#FD6872;}
	.st4{fill:#FD6774;}
	.st5{fill:#48426B;}
	.st6{fill:#4D426A;}
	.st7{fill:#4B4168;}
</style>
<g>
	<path class="st0" d="M281.6,222.7c13.9-18.5,28.2-36.7,45.6-52.1c15.6-13.7,32.3-25.6,53-30.4c7.2-1.7,14.3-1.9,21.6-0.4
		c10.6,2.2,17.5,9.9,18.8,20.6c1.1,8.9-0.6,17.6-2.5,26.2c-5.5,25.9-11.3,51.7-22.1,76c-3.4,7.5-7.3,14.8-13,20.9
		c-3.7,3.9-7.7,7.3-13,8.7c-2.1,2.8-4.6,1.6-6.8,0.5c-19.4-9.6-40.4-10.5-61.4-11.1c-4.5-0.1-9-0.1-13.5,0c-2.5,0.1-4.7-0.5-6.5-2.3
		c-1.6-1.9-2.3-4.2-2.5-6.5c-0.6-8.5-3.7-16.4-5.7-24.5c-1.1-4.7-1.1-8.9,2.1-12.7c1.9-2.2,2.3-4.9,2.8-7.6
		C279,225.8,279.2,223.6,281.6,222.7z"/>
	<path class="st0" d="M131.7,294.8c-4.4-2.1-8.7-4.4-11.3-8.8c-8.4-11.8-15-24.6-20.1-38.2c-4.3-11.4-7.7-23-9.8-34.9
		c-1.5-8.5-3.3-16.9-5.8-25.1c-2.7-9.2-3.5-18.3-1.9-27.6c2.3-9.8,9.5-13.9,18.6-15.5c14.6-2.5,28.4,0.5,41.7,6.9
		c20.3,9.8,36.8,24.4,52.1,40.5c9.5,9.9,17.8,20.9,26.5,31.5c0.2,0,0.5,0,0.6,0.1c2.5,9.5,12.6,16.9,7.4,28.7
		c-2.3,5.3-3.5,11.2-4,17.1c-0.3,3.2-0.4,6.7-2.8,9.4c-2.6,2.5-6,2.5-9.3,2.6c-18.6,0.3-37,1.4-55,6.2c-6.6,1.7-12.8,4.6-19.1,7.1
		C136.7,295.7,134.2,297.4,131.7,294.8z"/>
	<path class="st1" d="M221.8,277.7c1.1-10.9,2.8-21.6,7.3-31.7c0.6-1.2,1.6-2.8,0.1-3.7c-6.8-4.6-6.5-11.9-7.7-18.7
		c3.6-7.6,6.5-15.6,14.1-20.5c1.5-0.9,1.4-2.6,0.9-4.2c-4.4-18.1-12.3-34.3-25.2-47.9c-3-3.2-6.4-5.3-11-6
		c-9.7-1.4-15.4-9-14.9-18.8c0.3-6.6,5.6-10.2,11.9-7.9c7,2.6,11.4,7.8,12.6,15c1,5.9,3.8,10.3,7.9,14.6
		c12.4,12.8,20.4,28.2,24.8,45.5c1.2,4.7,3.2,6.9,8.1,5.5c1.1-0.3,2.4-0.3,3.5-0.1c4.4,1,5.8-1.1,6.6-5.1
		c3.5-17.7,10.9-33.6,23.3-46.8c3.9-4.2,6.9-8.2,8.2-14.2c1.7-7.6,7.5-12.7,15.6-14.2c4.4-0.8,8.5-0.3,11,3.6
		c2.6,4.1,1.7,8.4-1.2,12c-4.8,5.8-10.9,9.7-18.4,10.7c-3,0.4-5.1,1.6-7,3.7c-13.5,14.5-20.8,32.1-24.7,51.2c-0.4,2-0.3,4,1.5,5.4
		c6,4.6,9.2,11.1,12.5,17.5c-0.5,6.3-1.1,12.5-5.9,17.3c-1.2,1.2-1,2.9-0.5,4.4c3.5,11.4,6.1,23.1,8.3,34.9
		c3.7,4.2,3.1,9.6,3.5,14.5c1.2,17.1-1.3,33.9-6,50.3c-0.4,1.5-0.9,3-2.6,3.7c-2.1,1.1-2.5,3.4-3.5,5.2c-2.1,3.5-4.2,7-7.1,10
		c-8.8,9-18.8,9.1-27.6,0c-3.2-3.4-6.1-7.1-9.1-10.7c-2.9-0.9-3.3-3.6-4.1-6c-6.7-19.5-8.9-39.5-8.2-60
		C218.9,283,220.1,280.4,221.8,277.7z"/>
	<path class="st2" d="M221.8,277.7c-1.6,25.4,0.9,50.4,9.3,74.6c-2,11.8-3.8,23.6-10.4,34.1c-7.1,11.4-17.3,16.6-30.6,16.1
		c-9.4-0.4-14.4-4.4-16.8-13.5c-2.6-9.9-3.8-20-3.3-30.3c0.4-8.8,0.4-8.9-8-5.2c-8.1,3.5-16.5,6.3-25.1,8.2
		c-4.3,0.9-8.6,1.1-12.8,0.2c-10.2-2.2-15.8-10-14.1-20.3c3-17.5,9.2-33.6,21.7-46.7c7.6-2.9,15.1-6.2,22.9-8.6
		c19.4-6,39.5-7.4,59.8-7.4C216.9,278.7,219.5,279.1,221.8,277.7z"/>
	<path class="st2" d="M278.4,347.8c0.2-2.1-0.1-4.4,0.5-6.4c6-19.4,7-39.2,4.3-59.2c-0.1-0.9,0.2-1.9,0.3-2.9
		c22.1-0.9,44.1-0.4,65.8,5.1c7.2,1.8,13.4,6.3,20.7,7.8c3.6,5.6,9,9.8,12.4,15.5c4.7,7.8,8.6,15.9,9.9,25c2.2,14.9-6.1,24-21,23
		c-10.5-0.7-20.4-3.8-29.9-8.2c-5.8-2.6-5.7-2.7-5.3,3.5c0.5,10.2,0.9,20.3-1.1,30.5c-1.7,8.5-7.1,12.9-15.1,14.2
		c-9.3,1.5-17.4-0.9-24.2-7.6C284.4,376.9,279.6,363.1,278.4,347.8z"/>
	<path class="st2" d="M356.7,256.6c-9.3,2-21,1.6-32.8,0.6c-3.3-0.3-4.9-2-5.1-5.3c-0.8-15.4,0-30.5,5.2-45.2
		c2.6-7.4,8.4-11.1,16-12.1c5.3-0.8,10.1,2.5,11.7,7.6c1.3,4.2,0.8,8.5,0.3,12.8c-1,8-0.9,8,6.7,6c3.6-1,7.2-1.9,11-1.8
		c7.8,0.2,11.8,4.8,10.7,12.6C378.9,242.5,369.4,253.2,356.7,256.6z"/>
	<path class="st3" d="M367.2,197c-2.5-9.6,4.7-22.5,14.2-25.4c6.5-2,11.8,1.1,13.1,7.8c1.9,9.4-5.6,21.9-14.8,24.7
		C373.8,205.9,368.8,203,367.2,197z"/>
	<path class="st2" d="M180.4,219.1c2.4,11.6,3.8,23.4,2.9,35.5c-0.2,3.4-1.7,5-4.9,5.3c-10.7,1-21.4,2.2-32.2,0.4
		c-12.4-2.1-23.3-13.3-24.9-25.8c-0.8-6.5,3.3-11.1,10.6-10.9c4.5,0.1,9,0.8,13.3,1.9c4.1,1.1,5,0,4.5-3.8
		c-0.5-3.9-1.2-7.8-1.1-11.7c0.4-10,8.1-14.6,17.6-10.8C175.1,202.8,177.6,210.9,180.4,219.1z"/>
	<path class="st4" d="M134.8,193.6c0.4,1.2,0.7,4.1,0.1,7c-1.5,6.8-7.4,10-13.9,7.4c-7.8-3.1-14.4-13.1-14.2-21.4
		c0.2-9.4,8.2-13.9,16.4-9.2C128.9,180.8,132.7,185.6,134.8,193.6z"/>
	<path class="st5" d="M268.3,304c0.4,1.1,0.2,2-0.6,2.8c-1,1-2.2,0.8-3.2,0c-7.2-6.1-14.3-4.8-21.4,0.3c-1.1,0.8-2.5,1.2-3.7-0.1
		c-0.9-1.1-0.5-2.1,0.1-3.2c4.6-7.8,23.7-8.2,28.3-0.6C268,303.4,268.1,303.8,268.3,304z"/>
	<path class="st6" d="M250.9,274.9c4.9-1.1,9.3,0.9,12.9,5c0.9,1.1,1.7,2.4,0.7,3.7c-1.1,1.5-2.4,0.6-3.5-0.3
		c-5.1-4.4-10.1-4.3-15.1,0.2c-1,0.9-2.2,2.1-3.5,0.9c-1.4-1.3-0.7-2.9,0.3-4.2C244.7,277.7,247.1,275.9,250.9,274.9z"/>
	<path class="st7" d="M265.3,328.2c0.2,1.2,0.5,2.2-0.5,2.9c-1,0.7-1.9,0.3-2.6-0.4c-5.6-5.3-10.9-4.2-16,0.6
		c-0.7,0.7-1.7,1.1-2.7,0.6c-1-0.5-1.1-1.5-0.9-2.5c0.7-3.3,7.1-7.5,11.8-7.5C259.3,322,263,324.2,265.3,328.2z"/>
</g>
</svg>
