<?xml version="1.0" encoding="utf-8"?>
<!-- Generator: Adobe Illustrator 27.0.0, SVG Export Plug-In . SVG Version: 6.00 Build 0)  -->
<svg version="1.1" id="Layer_1" xmlns="http://www.w3.org/2000/svg" xmlns:xlink="http://www.w3.org/1999/xlink" x="0px" y="0px"
	 viewBox="0 0 512 512" style="enable-background:new 0 0 512 512;" xml:space="preserve">
<style type="text/css">
	.st0{fill:none;stroke:#000000;stroke-width:10;stroke-miterlimit:10;}
	.st1{stroke:#000000;stroke-width:10;stroke-miterlimit:10;}
</style>
<path class="st0" d="M265.3,328.2c0.2,1.2,0.5,2.2-0.5,2.9c-1,0.7-1.9,0.3-2.6-0.4c-5.6-5.3-10.9-4.2-16,0.6
	c-0.7,0.7-1.7,1.1-2.7,0.6s-1.1-1.5-0.9-2.5c0.7-3.3,7.1-7.5,11.8-7.5C259.3,322,263,324.2,265.3,328.2z"/>
<path class="st0" d="M221.7,223.6c-8.7-10.6-17-21.6-26.5-31.5c-15.3-16.1-31.8-30.7-52.1-40.5c-13.3-6.4-27.1-9.4-41.7-6.9
	c-9.1,1.6-16.3,5.7-18.6,15.5c-1.6,9.3-0.8,18.4,1.9,27.6c2.5,8.2,4.3,16.6,5.8,25.1c2.1,11.9,5.5,23.5,9.8,34.9
	c5.1,13.6,11.7,26.4,20.1,38.2c2.6,4.4,6.9,6.7,11.3,8.8c2.5,2.6,5,0.9,7.8,0c6.3-2.5,12.5-5.4,19.1-7.1c18-4.8,36.4-5.9,55-6.2
	c3.3-0.1,6.7-0.1,9.3-2.6c2.4-2.7,2.5-6.2,2.8-9.4c0.5-5.9,1.7-11.8,4-17.1c5.2-11.8-4.9-19.2-7.4-28.7
	C222.2,223.6,221.9,223.6,221.7,223.6z"/>
<path class="st0" d="M285.2,157.2h-9.4c-7.5,10.9-12.4,23.2-15,36.5c-0.8,4-2.2,6.1-6.6,5.1c-1.1-0.2-2.4-0.2-3.5,0.1
	c-4.9,1.4-6.9-0.8-8.1-5.5c-3.4-13.3-8.9-25.5-16.9-36.2h-9c9.8,12.2,16.1,26.3,19.8,41.7c0.5,1.6,0.6,3.3-0.9,4.2
	c-7.6,4.9-10.5,12.9-14.1,20.5c1.2,6.8,0.9,14.1,7.7,18.7c1.5,0.9,0.5,2.5-0.1,3.7c-4.5,10.1-6.2,20.8-7.3,31.7
	c-1.7,2.7-2.9,5.3-3,8.5c-0.7,20.5,1.5,40.5,8.2,60c0.8,2.4,1.2,5.1,4.1,6c3,3.6,5.9,7.3,9.1,10.7c8.8,9.1,18.8,9,27.6,0
	c2.9-3,5-6.5,7.1-10c1-1.8,1.4-4.1,3.5-5.2c1.7-0.7,2.2-2.2,2.6-3.7c4.7-16.4,7.2-33.2,6-50.3c-0.4-4.9,0.2-10.3-3.5-14.5
	c-2.2-11.8-4.8-23.5-8.3-34.9c-0.5-1.5-0.7-3.2,0.5-4.4c4.8-4.8,5.4-11,5.9-17.3c-3.3-6.4-6.5-12.9-12.5-17.5
	c-1.8-1.4-1.9-3.4-1.5-5.4C270.8,184.3,276.1,169.8,285.2,157.2z"/>
<path class="st1" d="M217.8,147.9c-4.1-4.3-6.9-8.7-7.9-14.6c-1.2-7.2-5.6-12.4-12.6-15c-6.3-2.3-11.6,1.3-11.9,7.9
	c-0.5,9.8,5.2,17.4,14.9,18.8c4.6,0.7,8,2.8,11,6c1.9,2,3.7,4.1,5.4,6.2h9C223.3,154,220.7,150.9,217.8,147.9z"/>
<path class="st1" d="M299.3,144.8c7.5-1,13.6-4.9,18.4-10.7c2.9-3.6,3.8-7.9,1.2-12c-2.5-3.9-6.6-4.4-11-3.6
	c-8.1,1.5-13.9,6.6-15.6,14.2c-1.3,6-4.3,10-8.2,14.2c-3.1,3.3-5.8,6.7-8.3,10.3h9.4c2.2-3,4.5-5.9,7.1-8.7
	C294.2,146.4,296.3,145.2,299.3,144.8z"/>
<path class="st1" d="M221.8,277.7c-1.6,25.4,0.9,50.4,9.3,74.6c-2,11.8-3.8,23.6-10.4,34.1c-7.1,11.4-17.3,16.6-30.6,16.1
	c-9.4-0.4-14.4-4.4-16.8-13.5c-2.6-9.9-3.8-20-3.3-30.3c0.4-8.8,0.4-8.9-8-5.2c-8.1,3.5-16.5,6.3-25.1,8.2
	c-4.3,0.9-8.6,1.1-12.8,0.2c-10.2-2.2-15.8-10-14.1-20.3c3-17.5,9.2-33.6,21.7-46.7c7.6-2.9,15.1-6.2,22.9-8.6
	c19.4-6,39.5-7.4,59.8-7.4C216.9,278.7,219.5,279.1,221.8,277.7z"/>
<path class="st1" d="M278.4,347.8c0.2-2.1-0.1-4.4,0.5-6.4c6-19.4,7-39.2,4.3-59.2c-0.1-0.9,0.2-1.9,0.3-2.9
	c22.1-0.9,44.1-0.4,65.8,5.1c7.2,1.8,13.4,6.3,20.7,7.8c3.6,5.6,9,9.8,12.4,15.5c4.7,7.8,8.6,15.9,9.9,25c2.2,14.9-6.1,24-21,23
	c-10.5-0.7-20.4-3.8-29.9-8.2c-5.8-2.6-5.7-2.7-5.3,3.5c0.5,10.2,0.9,20.3-1.1,30.5c-1.7,8.5-7.1,12.9-15.1,14.2
	c-9.3,1.5-17.4-0.9-24.2-7.6C284.4,376.9,279.6,363.1,278.4,347.8z"/>
<path class="st0" d="M356.7,256.6c-9.3,2-21,1.6-32.8,0.6c-3.3-0.3-4.9-2-5.1-5.3c-0.8-15.4,0-30.5,5.2-45.2
	c2.6-7.4,8.4-11.1,16-12.1c5.3-0.8,10.1,2.5,11.7,7.6c1.3,4.2,0.8,8.5,0.3,12.8c-1,8-0.9,8,6.7,6c3.6-1,7.2-1.9,11-1.8
	c7.8,0.2,11.8,4.8,10.7,12.6C378.9,242.5,369.4,253.2,356.7,256.6z"/>
<path class="st0" d="M367.2,197c-2.5-9.6,4.7-22.5,14.2-25.4c6.5-2,11.8,1.1,13.1,7.8c1.9,9.4-5.6,21.9-14.8,24.7
	C373.8,205.9,368.8,203,367.2,197z"/>
<path class="st0" d="M180.4,219.1c2.4,11.6,3.8,23.4,2.9,35.5c-0.2,3.4-1.7,5-4.9,5.3c-10.7,1-21.4,2.2-32.2,0.4
	c-12.4-2.1-23.3-13.3-24.9-25.8c-0.8-6.5,3.3-11.1,10.6-10.9c4.5,0.1,9,0.8,13.3,1.9c4.1,1.1,5,0,4.5-3.8c-0.5-3.9-1.2-7.8-1.1-11.7
	c0.4-10,8.1-14.6,17.6-10.8C175.1,202.8,177.6,210.9,180.4,219.1z"/>
<path class="st0" d="M134.8,193.6c0.4,1.2,0.7,4.1,0.1,7c-1.5,6.8-7.4,10-13.9,7.4c-7.8-3.1-14.4-13.1-14.2-21.4
	c0.2-9.4,8.2-13.9,16.4-9.2C128.9,180.8,132.7,185.6,134.8,193.6z"/>
<path class="st0" d="M268.3,304c0.4,1.1,0.2,2-0.6,2.8c-1,1-2.2,0.8-3.2,0c-7.2-6.1-14.3-4.8-21.4,0.3c-1.1,0.8-2.5,1.2-3.7-0.1
	c-0.9-1.1-0.5-2.1,0.1-3.2c4.6-7.8,23.7-8.2,28.3-0.6C268,303.4,268.1,303.8,268.3,304z"/>
<path class="st0" d="M250.9,274.9c4.9-1.1,9.3,0.9,12.9,5c0.9,1.1,1.7,2.4,0.7,3.7c-1.1,1.5-2.4,0.6-3.5-0.3
	c-5.1-4.4-10.1-4.3-15.1,0.2c-1,0.9-2.2,2.1-3.5,0.9c-1.4-1.3-0.7-2.9,0.3-4.2C244.7,277.7,247.1,275.9,250.9,274.9z"/>
<path class="st0" d="M420.6,160.4c-1.3-10.7-8.2-18.4-18.8-20.6c-7.3-1.5-14.4-1.3-21.6,0.4c-20.7,4.8-37.4,16.7-53,30.4
	c-17.4,15.4-31.7,33.6-45.6,52.1c-2.4,0.9-2.6,3.1-3.1,5.3c-0.5,2.7-0.9,5.4-2.8,7.6c-3.2,3.8-3.2,8-2.1,12.7c2,8.1,5.1,16,5.7,24.5
	c0.2,2.3,0.9,4.6,2.5,6.5c1.8,1.8,4,2.4,6.5,2.3c4.5-0.1,9-0.1,13.5,0c21,0.6,42,1.5,61.4,11.1c2.2,1.1,4.7,2.3,6.8-0.5
	c5.3-1.4,9.3-4.8,13-8.7c5.7-6.1,9.6-13.4,13-20.9c10.8-24.3,16.6-50.1,22.1-76C420,178,421.7,169.3,420.6,160.4z"/>
</svg>
