<?xml version="1.0" encoding="utf-8"?>
<!-- Generator: Adobe Illustrator 27.0.0, SVG Export Plug-In . SVG Version: 6.00 Build 0)  -->
<svg version="1.1" id="Layer_1" xmlns="http://www.w3.org/2000/svg" xmlns:xlink="http://www.w3.org/1999/xlink" x="0px" y="0px"
	 viewBox="0 0 512 512" style="enable-background:new 0 0 512 512;" xml:space="preserve">
<style type="text/css">
	.st0{display:none;fill:#231F20;}
	.st1{display:none;fill:url(#SVGID_1_);}
	.st2{display:none;}
	.st3{display:inline;fill:url(#SVGID_00000165948932707136870270000013698650605504231305_);}
	.st4{display:inline;fill:url(#SVGID_00000006706092490612205640000014196703876635517876_);}
	.st5{display:inline;fill:url(#SVGID_00000105421661165625073140000011335077852329227433_);}
	.st6{display:inline;fill:url(#SVGID_00000087409665362253419490000008985782800579452574_);}
	.st7{display:inline;fill:url(#SVGID_00000141446210445068922920000012966896438362703774_);}
	.st8{display:inline;fill:url(#SVGID_00000058557327034000861970000008492302055976198054_);}
	.st9{display:inline;fill:url(#SVGID_00000078752425464110958260000018330588191870012817_);}
	.st10{display:inline;fill:url(#SVGID_00000016033985761526033210000017736963579697337020_);}
	.st11{display:inline;fill:url(#SVGID_00000035496552515850356990000008081835235917118868_);}
	.st12{display:inline;fill:url(#SVGID_00000101087326278528009790000005178021829784114568_);}
	.st13{display:inline;fill:url(#SVGID_00000055676141435116322590000001808160953820285874_);}
	.st14{display:inline;fill:url(#SVGID_00000165945742536010038050000010580504813209678522_);}
	.st15{display:none;fill:url(#SVGID_00000094609900083240362290000016436121427771157137_);}
	.st16{opacity:0.5;enable-background:new    ;}
</style>
<rect class="st0" width="512" height="512"/>
<linearGradient id="SVGID_1_" gradientUnits="userSpaceOnUse" x1="157.0311" y1="362.5089" x2="370.1232" y2="149.4169" gradientTransform="matrix(1 0 0 -1 0 512)">
	<stop  offset="0" style="stop-color:#B1FF3B"/>
	<stop  offset="0.0427" style="stop-color:#95FF38"/>
	<stop  offset="0.1148" style="stop-color:#6BFE33"/>
	<stop  offset="0.1886" style="stop-color:#49FE2F"/>
	<stop  offset="0.2632" style="stop-color:#2EFD2C"/>
	<stop  offset="0.3391" style="stop-color:#1BFD2A"/>
	<stop  offset="0.417" style="stop-color:#10FD28"/>
	<stop  offset="0.5" style="stop-color:#0CFD28"/>
	<stop  offset="1" style="stop-color:#3FF3F0"/>
</linearGradient>
<path class="st1" d="M129.96,231.29v49.53c0,7.35-5.72,13.24-13.4,13.24c-7.36,0-12.91-5.89-12.91-13.24v-49.53
	c0-7.36,5.56-13.4,12.91-13.4C124.24,217.89,129.96,223.94,129.96,231.29z M171.64,151.04c-7.36,0-13.08,6.05-13.08,13.4v183.24
	c0,7.36,5.72,13.24,13.08,13.24c7.52,0,13.24-5.88,13.24-13.24V164.44C184.88,157.08,179.16,151.04,171.64,151.04z M226.56,85.32
	c-7.36,0-12.91,5.88-12.91,13.24v314.99c0,7.35,5.56,13.24,12.91,13.24c7.52,0,13.4-5.89,13.4-13.24V98.56
	C239.97,91.21,234.08,85.32,226.56,85.32z M281.65,170.98c-7.52,0-13.08,5.88-13.08,13.24V327.9c0,7.35,5.56,13.08,13.08,13.08
	s13.24-5.72,13.24-13.08V184.22C294.89,176.86,289.17,170.98,281.65,170.98z M336.74,121.45c-7.68,0-13.24,6.05-13.24,13.24v242.74
	c0,7.19,5.56,13.08,13.24,13.08c7.35,0,13.08-5.88,13.08-13.08V134.69C349.81,127.5,344.09,121.45,336.74,121.45z M391.66,203.83
	c-7.52,0-13.08,6.05-13.08,13.24v77.97c0,7.19,5.56,13.08,13.08,13.08c7.36,0,13.24-5.88,13.24-13.08v-77.97
	C404.9,209.88,399.01,203.83,391.66,203.83z"/>
<g class="st2">
	
		<linearGradient id="SVGID_00000089561510513081540650000009393124060639006634_" gradientUnits="userSpaceOnUse" x1="116.805" y1="294.11" x2="116.805" y2="217.94" gradientTransform="matrix(1 0 0 -1 0 512)">
		<stop  offset="0" style="stop-color:#B1FF3B"/>
		<stop  offset="0.0427" style="stop-color:#95FF38"/>
		<stop  offset="0.1148" style="stop-color:#6BFE33"/>
		<stop  offset="0.1886" style="stop-color:#49FE2F"/>
		<stop  offset="0.2632" style="stop-color:#2EFD2C"/>
		<stop  offset="0.3391" style="stop-color:#1BFD2A"/>
		<stop  offset="0.417" style="stop-color:#10FD28"/>
		<stop  offset="0.5" style="stop-color:#0CFD28"/>
		<stop  offset="1" style="stop-color:#3FF3F0"/>
	</linearGradient>
	<path style="display:inline;fill:url(#SVGID_00000089561510513081540650000009393124060639006634_);" d="M129.96,231.29v49.53
		c0,7.35-5.72,13.24-13.4,13.24c-7.36,0-12.91-5.89-12.91-13.24v-49.53c0-7.36,5.56-13.4,12.91-13.4
		C124.24,217.89,129.96,223.94,129.96,231.29z"/>
	
		<linearGradient id="SVGID_00000052063207629809641900000016193030240250563207_" gradientUnits="userSpaceOnUse" x1="171.72" y1="360.96" x2="171.72" y2="151.08" gradientTransform="matrix(1 0 0 -1 0 512)">
		<stop  offset="0" style="stop-color:#B1FF3B"/>
		<stop  offset="0.0427" style="stop-color:#95FF38"/>
		<stop  offset="0.1148" style="stop-color:#6BFE33"/>
		<stop  offset="0.1886" style="stop-color:#49FE2F"/>
		<stop  offset="0.2632" style="stop-color:#2EFD2C"/>
		<stop  offset="0.3391" style="stop-color:#1BFD2A"/>
		<stop  offset="0.417" style="stop-color:#10FD28"/>
		<stop  offset="0.5" style="stop-color:#0CFD28"/>
		<stop  offset="1" style="stop-color:#3FF3F0"/>
	</linearGradient>
	<path style="display:inline;fill:url(#SVGID_00000052063207629809641900000016193030240250563207_);" d="M171.64,151.04
		c-7.36,0-13.08,6.05-13.08,13.4v183.24c0,7.36,5.72,13.24,13.08,13.24c7.52,0,13.24-5.88,13.24-13.24V164.44
		C184.88,157.08,179.16,151.04,171.64,151.04z"/>
	
		<linearGradient id="SVGID_00000158007606123480461850000000052774185933992639_" gradientUnits="userSpaceOnUse" x1="226.805" y1="426.68" x2="226.805" y2="85.21" gradientTransform="matrix(1 0 0 -1 0 512)">
		<stop  offset="0" style="stop-color:#B1FF3B"/>
		<stop  offset="0.0427" style="stop-color:#95FF38"/>
		<stop  offset="0.1148" style="stop-color:#6BFE33"/>
		<stop  offset="0.1886" style="stop-color:#49FE2F"/>
		<stop  offset="0.2632" style="stop-color:#2EFD2C"/>
		<stop  offset="0.3391" style="stop-color:#1BFD2A"/>
		<stop  offset="0.417" style="stop-color:#10FD28"/>
		<stop  offset="0.5" style="stop-color:#0CFD28"/>
		<stop  offset="1" style="stop-color:#3FF3F0"/>
	</linearGradient>
	<path style="display:inline;fill:url(#SVGID_00000158007606123480461850000000052774185933992639_);" d="M226.56,85.32
		c-7.36,0-12.91,5.88-12.91,13.24v314.99c0,7.35,5.56,13.24,12.91,13.24c7.52,0,13.4-5.89,13.4-13.24V98.56
		C239.97,91.21,234.08,85.32,226.56,85.32z"/>
	
		<linearGradient id="SVGID_00000044164862004309411120000008605783023584992949_" gradientUnits="userSpaceOnUse" x1="281.73" y1="341.02" x2="281.73" y2="171.02" gradientTransform="matrix(1 0 0 -1 0 512)">
		<stop  offset="0" style="stop-color:#B1FF3B"/>
		<stop  offset="0.0427" style="stop-color:#95FF38"/>
		<stop  offset="0.1148" style="stop-color:#6BFE33"/>
		<stop  offset="0.1886" style="stop-color:#49FE2F"/>
		<stop  offset="0.2632" style="stop-color:#2EFD2C"/>
		<stop  offset="0.3391" style="stop-color:#1BFD2A"/>
		<stop  offset="0.417" style="stop-color:#10FD28"/>
		<stop  offset="0.5" style="stop-color:#0CFD28"/>
		<stop  offset="1" style="stop-color:#3FF3F0"/>
	</linearGradient>
	<path style="display:inline;fill:url(#SVGID_00000044164862004309411120000008605783023584992949_);" d="M281.65,170.98
		c-7.52,0-13.08,5.88-13.08,13.24V327.9c0,7.35,5.56,13.08,13.08,13.08s13.24-5.72,13.24-13.08V184.22
		C294.89,176.86,289.17,170.98,281.65,170.98z"/>
	
		<linearGradient id="SVGID_00000112615680247767210630000016229938031916599201_" gradientUnits="userSpaceOnUse" x1="336.66" y1="390.55" x2="336.66" y2="121.49" gradientTransform="matrix(1 0 0 -1 0 512)">
		<stop  offset="0" style="stop-color:#B1FF3B"/>
		<stop  offset="0.0427" style="stop-color:#95FF38"/>
		<stop  offset="0.1148" style="stop-color:#6BFE33"/>
		<stop  offset="0.1886" style="stop-color:#49FE2F"/>
		<stop  offset="0.2632" style="stop-color:#2EFD2C"/>
		<stop  offset="0.3391" style="stop-color:#1BFD2A"/>
		<stop  offset="0.417" style="stop-color:#10FD28"/>
		<stop  offset="0.5" style="stop-color:#0CFD28"/>
		<stop  offset="1" style="stop-color:#3FF3F0"/>
	</linearGradient>
	<path style="display:inline;fill:url(#SVGID_00000112615680247767210630000016229938031916599201_);" d="M336.74,121.45
		c-7.68,0-13.24,6.05-13.24,13.24v242.74c0,7.19,5.56,13.08,13.24,13.08c7.35,0,13.08-5.88,13.08-13.08V134.69
		C349.81,127.5,344.09,121.45,336.74,121.45z"/>
	
		<linearGradient id="SVGID_00000039836709363122267950000000121979477128354215_" gradientUnits="userSpaceOnUse" x1="391.74" y1="308.17" x2="391.74" y2="203.88" gradientTransform="matrix(1 0 0 -1 0 512)">
		<stop  offset="0" style="stop-color:#B1FF3B"/>
		<stop  offset="0.03" style="stop-color:#95FF38"/>
		<stop  offset="0.0806" style="stop-color:#6BFE33"/>
		<stop  offset="0.1324" style="stop-color:#49FE2F"/>
		<stop  offset="0.1848" style="stop-color:#2EFD2C"/>
		<stop  offset="0.2381" style="stop-color:#1BFD2A"/>
		<stop  offset="0.2928" style="stop-color:#10FD28"/>
		<stop  offset="0.3511" style="stop-color:#0CFD28"/>
		<stop  offset="1" style="stop-color:#3FF3F0"/>
	</linearGradient>
	<path style="display:inline;fill:url(#SVGID_00000039836709363122267950000000121979477128354215_);" d="M391.66,203.83
		c-7.52,0-13.08,6.05-13.08,13.24v77.97c0,7.19,5.56,13.08,13.08,13.08c7.36,0,13.24-5.88,13.24-13.08v-77.97
		C404.9,209.88,399.01,203.83,391.66,203.83z"/>
</g>
<g class="st2">
	
		<linearGradient id="SVGID_00000044146558501155522190000014011198174991435914_" gradientUnits="userSpaceOnUse" x1="116.805" y1="217.94" x2="116.805" y2="294.11" gradientTransform="matrix(1 0 0 -1 0 512)">
		<stop  offset="0" style="stop-color:#B1FF3B"/>
		<stop  offset="0.0427" style="stop-color:#95FF38"/>
		<stop  offset="0.1148" style="stop-color:#6BFE33"/>
		<stop  offset="0.1886" style="stop-color:#49FE2F"/>
		<stop  offset="0.2632" style="stop-color:#2EFD2C"/>
		<stop  offset="0.3391" style="stop-color:#1BFD2A"/>
		<stop  offset="0.417" style="stop-color:#10FD28"/>
		<stop  offset="0.5" style="stop-color:#0CFD28"/>
		<stop  offset="1" style="stop-color:#3FF3F0"/>
	</linearGradient>
	<path style="display:inline;fill:url(#SVGID_00000044146558501155522190000014011198174991435914_);" d="M129.96,231.29v49.53
		c0,7.35-5.72,13.24-13.4,13.24c-7.36,0-12.91-5.89-12.91-13.24v-49.53c0-7.36,5.56-13.4,12.91-13.4
		C124.24,217.89,129.96,223.94,129.96,231.29z"/>
	
		<linearGradient id="SVGID_00000000214900161292021940000006908863667260938911_" gradientUnits="userSpaceOnUse" x1="171.72" y1="360.96" x2="171.72" y2="151.08" gradientTransform="matrix(1 0 0 -1 0 512)">
		<stop  offset="0" style="stop-color:#B1FF3B"/>
		<stop  offset="0.0427" style="stop-color:#95FF38"/>
		<stop  offset="0.1148" style="stop-color:#6BFE33"/>
		<stop  offset="0.1886" style="stop-color:#49FE2F"/>
		<stop  offset="0.2632" style="stop-color:#2EFD2C"/>
		<stop  offset="0.3391" style="stop-color:#1BFD2A"/>
		<stop  offset="0.417" style="stop-color:#10FD28"/>
		<stop  offset="0.5" style="stop-color:#0CFD28"/>
		<stop  offset="1" style="stop-color:#3FF3F0"/>
	</linearGradient>
	<path style="display:inline;fill:url(#SVGID_00000000214900161292021940000006908863667260938911_);" d="M171.64,151.04
		c-7.36,0-13.08,6.05-13.08,13.4v183.24c0,7.36,5.72,13.24,13.08,13.24c7.52,0,13.24-5.88,13.24-13.24V164.44
		C184.88,157.08,179.16,151.04,171.64,151.04z"/>
	
		<linearGradient id="SVGID_00000090292831012669993400000000032040088601092005_" gradientUnits="userSpaceOnUse" x1="226.805" y1="85.21" x2="226.805" y2="426.68" gradientTransform="matrix(1 0 0 -1 0 512)">
		<stop  offset="0" style="stop-color:#B1FF3B"/>
		<stop  offset="0.0427" style="stop-color:#95FF38"/>
		<stop  offset="0.1148" style="stop-color:#6BFE33"/>
		<stop  offset="0.1886" style="stop-color:#49FE2F"/>
		<stop  offset="0.2632" style="stop-color:#2EFD2C"/>
		<stop  offset="0.3391" style="stop-color:#1BFD2A"/>
		<stop  offset="0.417" style="stop-color:#10FD28"/>
		<stop  offset="0.5" style="stop-color:#0CFD28"/>
		<stop  offset="1" style="stop-color:#3FF3F0"/>
	</linearGradient>
	<path style="display:inline;fill:url(#SVGID_00000090292831012669993400000000032040088601092005_);" d="M226.56,85.32
		c-7.36,0-12.91,5.88-12.91,13.24v314.99c0,7.35,5.56,13.24,12.91,13.24c7.52,0,13.4-5.89,13.4-13.24V98.56
		C239.97,91.21,234.08,85.32,226.56,85.32z"/>
	
		<linearGradient id="SVGID_00000020379624376311255910000007257332708980220321_" gradientUnits="userSpaceOnUse" x1="281.73" y1="341.02" x2="281.73" y2="171.02" gradientTransform="matrix(1 0 0 -1 0 512)">
		<stop  offset="0" style="stop-color:#B1FF3B"/>
		<stop  offset="0.0427" style="stop-color:#95FF38"/>
		<stop  offset="0.1148" style="stop-color:#6BFE33"/>
		<stop  offset="0.1886" style="stop-color:#49FE2F"/>
		<stop  offset="0.2632" style="stop-color:#2EFD2C"/>
		<stop  offset="0.3391" style="stop-color:#1BFD2A"/>
		<stop  offset="0.417" style="stop-color:#10FD28"/>
		<stop  offset="0.5" style="stop-color:#0CFD28"/>
		<stop  offset="1" style="stop-color:#3FF3F0"/>
	</linearGradient>
	<path style="display:inline;fill:url(#SVGID_00000020379624376311255910000007257332708980220321_);" d="M281.65,170.98
		c-7.52,0-13.08,5.88-13.08,13.24V327.9c0,7.35,5.56,13.08,13.08,13.08s13.24-5.72,13.24-13.08V184.22
		C294.89,176.86,289.17,170.98,281.65,170.98z"/>
	
		<linearGradient id="SVGID_00000048479140423375020540000006118453157082167431_" gradientUnits="userSpaceOnUse" x1="336.66" y1="121.49" x2="336.66" y2="390.55" gradientTransform="matrix(1 0 0 -1 0 512)">
		<stop  offset="0" style="stop-color:#B1FF3B"/>
		<stop  offset="0.0427" style="stop-color:#95FF38"/>
		<stop  offset="0.1148" style="stop-color:#6BFE33"/>
		<stop  offset="0.1886" style="stop-color:#49FE2F"/>
		<stop  offset="0.2632" style="stop-color:#2EFD2C"/>
		<stop  offset="0.3391" style="stop-color:#1BFD2A"/>
		<stop  offset="0.417" style="stop-color:#10FD28"/>
		<stop  offset="0.5" style="stop-color:#0CFD28"/>
		<stop  offset="1" style="stop-color:#3FF3F0"/>
	</linearGradient>
	<path style="display:inline;fill:url(#SVGID_00000048479140423375020540000006118453157082167431_);" d="M336.74,121.45
		c-7.68,0-13.24,6.05-13.24,13.24v242.74c0,7.19,5.56,13.08,13.24,13.08c7.35,0,13.08-5.88,13.08-13.08V134.69
		C349.81,127.5,344.09,121.45,336.74,121.45z"/>
	
		<linearGradient id="SVGID_00000119807530370731469280000016554850128614888840_" gradientUnits="userSpaceOnUse" x1="391.74" y1="308.17" x2="391.74" y2="203.88" gradientTransform="matrix(1 0 0 -1 0 512)">
		<stop  offset="0" style="stop-color:#B1FF3B"/>
		<stop  offset="0.03" style="stop-color:#95FF38"/>
		<stop  offset="0.0806" style="stop-color:#6BFE33"/>
		<stop  offset="0.1324" style="stop-color:#49FE2F"/>
		<stop  offset="0.1848" style="stop-color:#2EFD2C"/>
		<stop  offset="0.2381" style="stop-color:#1BFD2A"/>
		<stop  offset="0.2928" style="stop-color:#10FD28"/>
		<stop  offset="0.3511" style="stop-color:#0CFD28"/>
		<stop  offset="1" style="stop-color:#3FF3F0"/>
	</linearGradient>
	<path style="display:inline;fill:url(#SVGID_00000119807530370731469280000016554850128614888840_);" d="M391.66,203.83
		c-7.52,0-13.08,6.05-13.08,13.24v77.97c0,7.19,5.56,13.08,13.08,13.08c7.36,0,13.24-5.88,13.24-13.08v-77.97
		C404.9,209.88,399.01,203.83,391.66,203.83z"/>
</g>
<linearGradient id="SVGID_00000145738709191382401880000009605369570553229696_" gradientUnits="userSpaceOnUse" x1="158.2286" y1="406.1799" x2="353.8929" y2="210.5155" gradientTransform="matrix(1 0 0 -1 0 512)">
	<stop  offset="0" style="stop-color:#B1FF3B"/>
	<stop  offset="0.0427" style="stop-color:#95FF38"/>
	<stop  offset="0.1148" style="stop-color:#6BFE33"/>
	<stop  offset="0.1886" style="stop-color:#49FE2F"/>
	<stop  offset="0.2632" style="stop-color:#2EFD2C"/>
	<stop  offset="0.3391" style="stop-color:#1BFD2A"/>
	<stop  offset="0.417" style="stop-color:#10FD28"/>
	<stop  offset="0.5" style="stop-color:#0CFD28"/>
	<stop  offset="1" style="stop-color:#3FF3F0"/>
</linearGradient>
<path style="display:none;fill:url(#SVGID_00000145738709191382401880000009605369570553229696_);" d="M256,395.66l-15.51-14.7
	c-28.85-26.94-52.39-49.6-70.62-67.97s-32.45-34.22-42.66-47.56c-10.21-13.33-17.14-25.38-20.82-36.13
	c-3.67-10.75-5.51-21.7-5.51-32.86c0-22.32,7.82-41.23,23.47-56.74s34.77-23.27,57.35-23.27c13.33,0,26.4,3.54,39.19,10.61
	c12.79,7.08,24.49,17.42,35.11,31.02c10.61-13.61,22.32-23.95,35.11-31.02c12.79-7.08,25.85-10.61,39.19-10.61
	c22.59,0,41.7,7.76,57.35,23.27s23.47,34.43,23.47,56.74c0,11.16-1.84,22.11-5.51,32.86s-10.61,22.79-20.82,36.13
	c-10.21,13.33-24.36,29.19-42.45,47.56s-41.7,41.02-70.82,67.97L256,395.66z M256,365.46c26.67-24.49,48.58-45.31,65.72-62.46
	c17.14-17.14,30.75-32.04,40.82-44.7c10.07-12.65,17.01-23.74,20.82-33.27c3.81-9.52,5.71-19.05,5.71-28.57
	c0-16.6-5.51-30.41-16.53-41.43s-25.1-16.53-42.25-16.53c-12.52,0-24.42,3.81-35.72,11.43c-11.29,7.62-20.61,18.23-27.96,31.84
	h-21.23c-7.62-13.88-17.01-24.56-28.17-32.04c-11.16-7.48-23-11.23-35.51-11.23c-16.87,0-30.89,5.51-42.04,16.53
	c-11.16,11.02-16.74,24.83-16.74,41.43c0,9.52,1.9,19.05,5.71,28.57s10.75,20.61,20.82,33.27c10.07,12.65,23.68,27.49,40.82,44.49
	C207.42,319.81,229.33,340.69,256,365.46z"/>
<path class="st16" d="M231.09,360c-11.53,0-21.47-4.17-29.82-12.53c-8.35-8.35-12.53-18.29-12.53-29.82
	c0-11.53,4.17-21.47,12.53-29.82c8.35-8.35,18.29-12.53,29.82-12.53c4.78,0,9.34,0.67,13.7,2.02s8.3,3.58,11.83,6.69V152h66.64
	v37.99h-49.82v127.67c0,11.53-4.17,21.47-12.53,29.82C252.56,355.83,242.62,360,231.09,360z"/>
</svg>
