<svg xmlns="http://www.w3.org/2000/svg" height="24" viewBox="0 -960 960 960" width="24"><path d="M240.294-51Q195-51 163-82.706t-32-77Q131-205 162.8-237q31.801-32 77.23-32 9.128 0 20.549 2.5T283-259l106-131q-15-19-19.5-36.5T365-468l-155-51q-14 22-38.286 35-24.285 13-51.714 13-45.417 0-77.208-31.706Q11-534.412 11-579.706T42.757-657q31.758-32 77.125-32Q164-689 196-658.083q32 30.916 33 75.083 0 4-.5 5t-.5 2l155 55q10-16 27-29.5t41-21.5v-164q-38-9-59-38.9t-21-65.513q0-44.837 31.706-76.712t77-31.875Q525-949 557-917.208q32 31.791 32 77.208 0 35.2-20.5 65.1Q548-745 509-736v164q25 8 41 20.5t27 30.5l155-55q-1-3-1-3.167V-583q2-44.167 33.294-75.083 31.294-30.917 76-30.917T917-657.294q32 31.706 32 77T917.208-503Q885.417-471 840-471q-27.106 0-51.053-13Q765-497 750-519l-156 51q0 24-4 42t-19 35l106 131q11-4 22.421-6.5t20.549-2.5q45.429 0 77.23 31.706 31.8 31.706 31.8 77T797.294-83q-31.706 32-77 32T643-82.792Q611-114.583 611-160q0-17.193 4-32.096Q619-207 632-222L528-355q-19.022 10-47.011 10Q453-345 433-355L328-222q12 15 16.5 29.904Q349-177.193 349-160q0 45.417-31.706 77.208Q285.588-51 240.294-51ZM119.772-525Q142-525 158.5-541.272t16.5-38.5Q175-602 158.728-618.5t-38.5-16.5Q98-635 81.5-618.728t-16.5 38.5Q65-558 81.272-541.5t38.5 16.5Zm120 420Q262-105 278.5-121.272t16.5-38.5Q295-182 278.728-198.5t-38.5-16.5Q218-215 201.5-198.728t-16.5 38.5Q185-138 201.272-121.5t38.5 16.5Zm240-680Q502-785 518.5-801.272t16.5-38.5Q535-862 518.728-878.5t-38.5-16.5Q458-895 441.5-878.728t-16.5 38.5Q425-818 441.272-801.5t38.5 16.5Zm.214 386Q505-399 523-416.986q18-17.986 18-43T523.014-503q-17.986-18-43-18T437-503.014q-18 17.986-18 43T436.986-417q17.986 18 43 18Zm239.786 294Q742-105 758.5-121.272t16.5-38.5Q775-182 758.728-198.5t-38.5-16.5Q698-215 681.5-198.728t-16.5 38.5Q665-138 681.272-121.5t38.5 16.5Zm120-420Q862-525 878.5-541.272t16.5-38.5Q895-602 878.728-618.5t-38.5-16.5Q818-635 801.5-618.728t-16.5 38.5Q785-558 801.272-541.5t38.5 16.5ZM480-840ZM120-580Zm360 120Zm360-120ZM240-160Zm480 0Z"/></svg>