<svg xmlns="http://www.w3.org/2000/svg" height="24" viewBox="0 -960 960 960" width="24"><path d="M62-253q10-102 63.036-187.845Q178.072-526.691 267-576l-70-121q-5-10-2-18.5t12-14.5q11-4 19-2t12.8 11.226L309-598q81.8-34.905 171-34.905T651-598l70.2-122.774Q726-730 734-732t19 2q9 6 12 14.5t-2 18.5l-70 121q88.928 49.309 141.964 135.155Q888-355 898-253H62Zm228.141-105Q309-358 323-372.141t14-33Q337-424 322.859-438t-33-14Q271-452 257-437.859t-14 33Q243-386 257.141-372t33 14Zm380 0Q689-358 703-372.141t14-33Q717-424 702.859-438t-33-14Q651-452 637-437.859t-14 33Q623-386 637.141-372t33 14Z"/></svg>