<svg xmlns="http://www.w3.org/2000/svg" height="24" viewBox="0 -960 960 960" width="24"><path d="M268-88q-37 0-61.5-24.5T182-174v-344q0-37 24.5-61.5T268-604h36v-80q0-75 51.19-126.5T480-862q73.62 0 124.81 51.5T656-684v80h36q37 0 61.5 24.5T778-518v344q0 37-24.5 61.5T692-88H268Zm0-54h424q14 0 23-9t9-23v-344q0-14-9-23t-23-9H268q-14 0-23 9t-9 23v344q0 14 9 23t23 9Zm212.159-134Q509-276 528.5-295.659q19.5-19.66 19.5-48.5Q548-373 528.341-392.5q-19.66-19.5-48.5-19.5Q451-412 431.5-392.341q-19.5 19.66-19.5 48.5Q412-315 431.659-295.5q19.66 19.5 48.5 19.5ZM358-604h244v-80q0-51-35.618-87.5-35.617-36.5-86.5-36.5Q429-808 393.5-771.5 358-735 358-684v80ZM236-142v-408 408Z"/></svg>