<?xml version="1.0" encoding="utf-8"?>
<!-- Generator: Adobe Illustrator 27.0.0, SVG Export Plug-In . SVG Version: 6.00 Build 0)  -->
<svg version="1.1" id="Layer_1" xmlns="http://www.w3.org/2000/svg" xmlns:xlink="http://www.w3.org/1999/xlink" x="0px" y="0px"
	 viewBox="0 0 512 512" style="enable-background:new 0 0 512 512;" xml:space="preserve">
<g>
	<path d="M0.5,423.2V68h70.1c0.3,0.1,42.5,7,82.8,33.2c23.7,15.4,42.2,34.3,54.9,56.2c15.9,27.4,22.9,59.6,20.7,95.7
		c-2.2,36.1-12.6,67.6-30.8,93.4c-14.6,20.7-34.2,37.8-58.3,51c-40.8,22.3-80.9,25.6-81.9,25.6H0.5z"/>
	<path d="M70.5,68.5c2,0.3,43.2,7.5,82.7,33.1c23.6,15.3,42,34.2,54.7,56c15.9,27.3,22.8,59.4,20.6,95.4
		c-2.2,36-12.5,67.4-30.7,93.1c-14.5,20.6-34.1,37.7-58.1,50.9c-40.5,22.1-80.4,25.5-81.7,25.6H1V68.5H70.5 M70.6,67.5H0v356.1h58
		c0,0,161.8-11.6,171.5-170.5C239.1,94.3,70.6,67.5,70.6,67.5L70.6,67.5z"/>
</g>
<g>
	<path d="M486.2,92.5l0.7,306.1l-43.3,0.1c-7.8-1.5-41.3-9-73.1-29.9c-20.1-13.2-35.7-29.3-46.3-47.7c-13.2-23-19-50.3-17.2-81.2
		c3.3-56.2,28.4-97.8,74.7-123.8c33.6-18.8,67.2-23,72.6-23.6L486.2,92.5 M455.2,92.5L455.2,92.5L455.2,92.5 M511.2,67.5l-58,0.1
		c0,0-161.8,12-171.1,170.9c-9.3,158.9,159.3,185.3,159.3,185.3l70.6-0.2L511.2,67.5L511.2,67.5z"/>
</g>
</svg>
