<?xml version="1.0" encoding="utf-8"?>
<!-- Generator: Adobe Illustrator 27.0.0, SVG Export Plug-In . SVG Version: 6.00 Build 0)  -->
<svg version="1.1" id="Layer_1" xmlns="http://www.w3.org/2000/svg" xmlns:xlink="http://www.w3.org/1999/xlink" x="0px" y="0px"
	 viewBox="0 0 409.4 69.2" style="enable-background:new 0 0 409.4 69.2;" xml:space="preserve">
<g>
	<path d="M0,67.6V0h0.1l36.1,51.2l-5.5-1.2L66.7,0h0.2v67.6H54.1V28.8l0.8,6.6l-22,31.2h-0.2L10.1,35.5l2.2-6.1v38.2H0z"/>
	<path d="M81.3,15.3c0-1.8,0.7-3.3,2.2-4.5c1.4-1.2,3-1.8,4.6-1.8c1.6,0,3.2,0.6,4.5,1.8c1.4,1.2,2.1,2.7,2.1,4.5
		c0,1.8-0.7,3.3-2.1,4.5c-1.4,1.1-2.9,1.7-4.5,1.7c-1.6,0-3.2-0.6-4.6-1.7C82,18.7,81.3,17.2,81.3,15.3z M81.6,29h12.3v38.5H81.6V29
		z"/>
	<path d="M119.2,68.4c-3.2,0-6.1-0.6-8.9-1.7s-5-2.7-6.9-4.7l5.1-6.8c1.9,1.7,3.6,2.9,5.2,3.7c1.6,0.7,3.1,1.1,4.4,1.1
		c1,0,1.9-0.1,2.7-0.3c0.8-0.2,1.4-0.5,1.9-1c0.5-0.4,0.7-1,0.7-1.7c0-1-0.4-1.8-1.2-2.4c-0.8-0.6-1.8-1.1-3-1.5
		c-1.2-0.4-2.6-0.8-4-1.2c-3.5-1.1-6.1-2.7-7.6-4.9c-1.6-2.1-2.3-4.5-2.3-7c0-1.9,0.5-3.9,1.5-5.9c1-2,2.7-3.6,4.9-4.9
		c2.3-1.3,5.2-2,8.8-2c3.2,0,6,0.3,8.2,1c2.2,0.6,4.4,1.7,6.4,3.2l-4.7,7.2c-1.1-0.9-2.4-1.6-3.7-2.2c-1.4-0.6-2.7-1-3.8-1
		c-1.1-0.1-2,0.1-2.7,0.4c-0.7,0.3-1.3,0.7-1.7,1.1c-0.4,0.5-0.6,1-0.6,1.5c-0.1,1.1,0.4,2,1.3,2.6c0.9,0.6,2.1,1.1,3.5,1.5
		c1.4,0.4,2.8,0.8,4.1,1.2c1.9,0.6,3.5,1.4,4.9,2.4c1.4,1,2.4,2.2,3.1,3.6c0.7,1.4,1.1,3,1.1,5c0,2.4-0.6,4.6-1.8,6.7
		c-1.2,2.1-3,3.8-5.5,5.1C126,67.7,122.9,68.4,119.2,68.4z"/>
	<path d="M149.7,12.1H162v16.8h9.3v9.6H162v29.1h-12.3V38.5h-6v-9.6h6V12.1z"/>
</g>
<g>
	<path d="M233.3,16.1c-2.2-1.1-4.6-2.1-7.1-2.9c-2.6-0.8-5.1-1.2-7.6-1.2c-3.4,0-6.1,0.8-8.2,2.4c-2,1.6-3,3.7-3,6.4
		c0,2,0.6,3.7,1.9,5.1c1.3,1.4,3,2.6,5.1,3.6c2.1,1,4.3,1.9,6.6,2.8c2,0.8,4,1.6,5.9,2.6c1.9,0.9,3.7,2.1,5.2,3.5
		c1.6,1.4,2.8,3.1,3.7,5.2c0.9,2.1,1.4,4.6,1.4,7.7c0,3.4-0.8,6.4-2.5,9.2c-1.7,2.8-4.1,4.9-7.2,6.5c-3.1,1.6-6.8,2.4-11.1,2.4
		c-2.8,0-5.5-0.3-8.1-1s-4.9-1.5-7.1-2.5c-2.2-1-4.1-2.1-5.8-3.2l3.8-6.7c1.4,1,3,2,4.9,2.9c1.8,0.9,3.7,1.6,5.7,2.2
		c2,0.6,3.9,0.8,5.8,0.8c2,0,4-0.4,6-1.1c2-0.7,3.6-1.9,4.9-3.4c1.3-1.5,1.9-3.6,1.9-6.1c0-2.2-0.6-4-1.7-5.4
		c-1.1-1.4-2.7-2.7-4.5-3.7c-1.9-1-3.9-2-6-2.8c-2-0.8-4-1.6-6.1-2.5c-2.1-0.9-4-2-5.7-3.4c-1.8-1.3-3.2-3-4.2-4.9
		c-1.1-1.9-1.6-4.3-1.6-7.1c0-3.4,0.8-6.3,2.4-8.8c1.6-2.5,3.8-4.5,6.7-5.9c2.8-1.4,6.1-2.2,9.7-2.3c4.1,0,7.7,0.5,10.9,1.5
		c3.1,1,5.9,2.2,8.3,3.7L233.3,16.1z"/>
	<path d="M253.1,15.9h8.2v16.2h10.1v6.4h-10.1v29.9h-8.2V38.5h-6.7v-6.4h6.7V15.9z"/>
	<path d="M298.2,69.3c-4.2,0-7.8-0.8-10.8-2.5s-5.3-4-6.9-6.9c-1.6-2.9-2.4-6.2-2.4-10c0-3.6,0.9-6.8,2.7-9.8
		c1.8-2.9,4.3-5.3,7.3-7.1c3.1-1.8,6.5-2.6,10.2-2.6c4.8,0,8.8,1.4,12,4.2c3.2,2.8,5.3,6.7,6.4,11.6l-30.1,10.6l-1.9-4.9l24.7-9
		l-1.8,1.1c-0.7-1.9-1.9-3.6-3.5-5.1c-1.6-1.4-3.8-2.2-6.4-2.2c-2.2,0-4.2,0.5-6,1.6c-1.8,1.1-3.1,2.6-4.1,4.5c-1,1.9-1.5,4-1.5,6.4
		c0,2.5,0.5,4.7,1.6,6.7c1.1,1.9,2.5,3.4,4.4,4.5c1.9,1.1,4,1.6,6.3,1.6c1.6,0,3.1-0.3,4.6-0.9c1.5-0.6,2.9-1.4,4.2-2.3l3.8,6.1
		c-1.8,1.2-3.9,2.2-6.1,3C302.6,68.9,300.4,69.3,298.2,69.3z"/>
	<path d="M327.1,0.2h8.2v68.3h-8.2V0.2z"/>
	<path d="M349.5,0.2h8.2v68.3h-8.2V0.2z"/>
	<path d="M387.1,69.3c-3.4,0-6.5-0.7-9.3-2.2c-2.8-1.5-5-3.6-6.6-6.5c-1.6-2.9-2.4-6.3-2.4-10.5c0-4.1,0.9-7.6,2.6-10.5
		c1.7-3,4-5.2,6.8-6.8c2.9-1.6,6-2.4,9.4-2.4c3.4,0,6.3,0.8,8.6,2.3c2.4,1.6,4.1,3.4,5.4,5.5l-0.5,1.4l0.8-7.8h7.6v36.5h-8.2v-9.5
		l0.9,2.1c-0.2,0.6-0.8,1.3-1.5,2.2c-0.8,0.9-1.9,1.8-3.2,2.8c-1.3,0.9-2.8,1.7-4.5,2.3C391.1,69,389.2,69.3,387.1,69.3z
		 M389.3,62.5c2.1,0,3.9-0.4,5.6-1.1c1.6-0.8,3-1.8,4.1-3.2c1.1-1.4,1.8-3,2.2-5V46c-0.5-1.8-1.3-3.3-2.5-4.6
		c-1.2-1.3-2.6-2.4-4.2-3.1c-1.6-0.7-3.5-1.1-5.5-1.1c-2.2,0-4.2,0.5-6,1.6c-1.8,1.1-3.3,2.5-4.4,4.4c-1.1,1.9-1.6,4.1-1.6,6.6
		c0,2.4,0.6,4.5,1.7,6.4c1.1,1.9,2.6,3.5,4.5,4.6C385.1,62,387.1,62.5,389.3,62.5z"/>
</g>
</svg>
